<?xml version="1.0" standalone="no"?>
<!DOCTYPE svg PUBLIC "-//W3C//DTD SVG 20010904//EN"
 "http://www.w3.org/TR/2001/REC-SVG-20010904/DTD/svg10.dtd">
<svg version="1.0" xmlns="http://www.w3.org/2000/svg"
 width="1000.000000pt" height="1000.000000pt" viewBox="0 0 1000.000000 1000.000000"
 preserveAspectRatio="xMidYMid meet">
<metadata>
Created by potrace 1.11, written by Peter Selinger 2001-2013
</metadata>
<g transform="translate(0.000000,1000.000000) scale(0.100000,-0.100000)"
fill="#000000" stroke="none">
<path d="M3330 9485 c-146 -38 -271 -133 -352 -266 -20 -34 -38 -65 -40 -70
-2 -4 -55 -22 -118 -38 -198 -52 -404 -123 -735 -256 -157 -63 -170 -68 -205
-83 -113 -50 -128 -53 -193 -36 -176 46 -363 -40 -442 -202 -26 -53 -29 -70
-29 -159 -1 -88 2 -107 25 -155 14 -30 45 -76 69 -103 26 -30 40 -54 37 -65
-3 -9 -53 -138 -111 -287 -59 -148 -154 -391 -212 -540 -58 -148 -109 -279
-114 -290 -10 -21 -199 -502 -253 -643 l-32 -83 -77 3 c-43 1 -80 -1 -84 -5
-16 -16 1 -170 32 -292 95 -370 404 -682 779 -789 122 -34 207 -44 350 -41
360 9 698 196 899 498 119 179 174 347 190 580 4 45 3 47 -23 48 -14 0 -53 1
-85 2 l-59 2 -48 120 c-26 66 -51 131 -57 145 -5 14 -42 108 -82 210 -39 102
-76 196 -82 210 -6 14 -14 34 -19 45 -12 28 -257 656 -340 870 -39 99 -78 197
-86 218 l-16 37 40 40 c63 64 110 177 108 257 l-1 31 225 91 c223 89 357 141
376 145 6 1 48 15 95 30 98 32 250 76 265 76 6 0 24 -28 40 -63 41 -86 158
-201 246 -244 l66 -32 -1 -283 -1 -283 -25 -2 c-14 0 -39 -1 -56 -2 l-31 -1
-1 -872 c0 -480 -1 -887 -1 -905 l-1 -32 -57 1 c-53 2 -57 0 -62 -22 -4 -14
-6 -213 -5 -442 l1 -417 -26 -6 c-35 -9 -61 -15 -91 -21 -14 -2 -56 -14 -95
-26 -38 -12 -74 -23 -80 -24 -20 -4 -185 -74 -232 -98 -84 -42 -226 -141 -295
-205 -146 -135 -239 -304 -252 -458 -2 -29 -6 -55 -9 -60 -3 -4 -45 -7 -95 -6
l-89 2 -1 -187 -1 -187 -186 -3 c-184 -2 -185 -3 -186 -25 0 -12 -1 -96 -2
-187 l0 -165 971 0 c857 0 972 -2 973 -15 0 -8 2 -23 4 -33 2 -9 6 -54 9 -100
7 -103 12 -145 37 -281 220 -1196 1137 -2159 2319 -2435 69 -16 148 -32 175
-37 28 -4 52 -8 55 -9 7 -1 103 -14 165 -21 124 -14 399 -19 515 -9 164 14
231 22 305 35 28 5 65 12 83 15 28 5 90 19 213 49 157 39 421 142 599 233 501
258 934 660 1225 1139 145 237 255 489 330 754 37 131 52 201 90 420 3 14 7
57 11 95 3 39 7 86 9 105 6 51 7 385 1 452 -7 85 -16 170 -21 198 -3 14 -7 43
-11 65 -3 22 -12 74 -20 115 -186 933 -803 1734 -1661 2158 -160 79 -426 177
-588 218 -16 4 -34 8 -40 10 -83 21 -283 56 -405 71 -36 4 -189 8 -342 8
l-276 0 -116 295 c-63 162 -186 474 -272 693 l-156 398 32 32 c71 69 112 165
112 263 0 74 -7 110 -34 166 -78 164 -253 248 -428 207 -25 -6 -56 -11 -70
-11 -14 -1 -162 54 -330 121 -320 129 -582 220 -762 267 -60 15 -108 31 -108
35 0 23 -80 140 -131 190 -66 66 -192 133 -279 149 -69 13 -191 11 -250 -5z
m724 -756 c21 -6 46 -12 55 -14 49 -9 429 -140 506 -174 11 -5 36 -15 55 -22
19 -7 58 -22 85 -34 28 -12 87 -37 133 -55 81 -33 82 -34 83 -69 2 -95 36
-177 103 -249 41 -44 44 -50 32 -68 -8 -10 -13 -21 -13 -24 0 -3 -30 -84 -68
-180 -39 -96 -70 -177 -71 -180 0 -3 -6 -17 -12 -33 -6 -15 -73 -184 -148
-375 -75 -191 -179 -455 -231 -587 -51 -132 -113 -288 -136 -348 l-42 -107
-77 2 c-43 1 -80 -1 -84 -5 -11 -11 -5 -114 11 -197 3 -14 7 -36 10 -49 2 -13
11 -47 20 -76 l15 -53 -56 -58 c-90 -92 -204 -225 -264 -307 -30 -42 -57 -76
-60 -76 -3 -1 -5 141 -5 316 l0 316 -61 0 -62 0 0 900 c0 673 -2 901 -11 906
-7 4 -32 6 -56 4 l-45 -4 -1 43 c-1 56 -1 521 0 529 1 4 11 9 24 13 38 9 139
79 191 132 26 27 66 82 88 122 22 39 43 72 46 72 4 0 24 -5 46 -11z m-2365
-834 c74 -190 263 -670 271 -690 5 -11 38 -94 74 -185 35 -91 108 -275 161
-410 94 -237 155 -393 155 -396 0 -1 -344 -1 -764 -2 l-765 0 14 32 c8 17 67
166 131 331 64 165 122 314 130 331 7 17 36 89 63 160 69 178 259 665 270 689
5 11 29 70 52 131 l43 110 63 0 63 0 39 -101z m3750 25 c16 -41 91 -230 166
-420 253 -641 325 -826 325 -837 0 -6 -35 -16 -77 -23 -313 -50 -733 -210
-1028 -390 -56 -34 -66 -37 -147 -38 -54 -1 -88 2 -88 8 0 6 43 120 95 253
266 674 361 915 558 1418 l41 105 63 0 63 0 29 -76z m1291 -2070 c217 -33 443
-99 618 -181 46 -21 85 -39 87 -39 7 0 187 -107 249 -149 167 -113 361 -291
485 -446 261 -324 444 -762 488 -1165 10 -94 10 -401 1 -495 -21 -198 -72
-403 -148 -595 -21 -52 -118 -253 -143 -295 -7 -11 -29 -49 -51 -84 l-39 -63
-310 310 -309 310 97 228 c53 126 103 243 110 259 8 17 28 64 45 105 17 41 35
84 40 95 5 11 43 99 83 195 48 112 79 174 88 174 8 -1 29 -5 47 -8 26 -5 37
-2 57 18 13 13 22 30 21 37 -7 39 -19 58 -46 69 -17 7 -30 14 -30 16 0 1 9 19
21 38 49 83 15 179 -78 220 l-41 18 18 41 c22 48 14 76 -23 95 -36 18 -63 2
-84 -49 -12 -31 -20 -38 -32 -33 -45 19 -91 26 -126 20 -51 -10 -103 -64 -111
-116 l-6 -38 -34 14 c-30 13 -38 12 -63 -1 -37 -18 -51 -68 -27 -94 25 -27 20
-29 -36 -14 -29 8 -69 18 -88 23 -164 37 -522 164 -745 263 -204 91 -583 299
-662 363 -26 21 -26 22 -5 17 32 -8 69 14 75 46 7 34 -7 57 -43 76 l-29 15 21
36 c38 64 18 165 -39 195 -23 12 -23 12 20 47 160 134 302 332 357 501 l14 44
121 -7 c66 -3 149 -10 185 -16z m-1558 -1592 c-3 -12 -14 -18 -36 -19 -36 -1
-136 -1 -152 0 -6 1 -14 29 -17 64 -7 73 -27 138 -69 221 l-29 59 154 -154
c111 -110 153 -158 149 -171z m-340 -789 c-2 -8 -26 -69 -55 -137 -46 -108
-54 -122 -72 -117 -61 17 -73 17 -94 -4 -30 -30 -27 -75 5 -100 15 -12 33 -21
41 -21 10 0 7 -12 -13 -46 -47 -79 -22 -163 62 -211 21 -13 43 -24 48 -26 5
-1 1 -17 -8 -34 -23 -46 -20 -80 9 -99 39 -26 73 -11 95 41 l19 44 49 -16 c93
-30 179 13 201 101 11 43 11 44 39 34 54 -21 104 13 96 65 -2 18 -1 18 24 1
207 -138 544 -309 822 -419 109 -43 357 -127 445 -150 108 -30 180 -47 193
-48 7 0 4 -8 -8 -19 -37 -35 -21 -97 30 -113 25 -8 25 -22 3 -48 -13 -13 -18
-36 -18 -76 0 -68 27 -111 85 -137 45 -20 45 -19 25 -67 -16 -38 -11 -64 14
-84 37 -29 73 -10 99 50 12 29 23 33 51 17 79 -42 199 8 217 90 11 50 14 54
26 42 18 -18 73 -14 91 6 32 36 25 78 -18 103 -33 20 -46 39 -26 39 6 0 94
-84 196 -187 170 -172 185 -189 168 -201 -10 -8 -60 -38 -111 -69 -252 -149
-531 -248 -811 -289 -25 -4 -55 -9 -66 -11 -37 -10 -440 -11 -500 -2 -33 4
-81 11 -106 14 -25 3 -86 14 -135 25 -49 12 -98 23 -110 25 -52 12 -243 79
-327 116 -218 96 -433 236 -610 398 -57 51 -171 171 -198 206 -13 17 -26 32
-30 35 -17 14 -133 179 -177 252 -178 296 -280 599 -318 943 -3 33 -8 63 -10
67 -2 3 2 12 9 20 20 19 663 16 659 -3z"/>
</g>
</svg>
