<svg id="Layer_1" data-name="Layer 1" xmlns="http://www.w3.org/2000/svg" viewBox="0 0 100 100">
  <defs>
    <style>
      .cls-4{fill:#fff}.cls-6{fill:#c67d3c}
    </style>
  </defs>
  <path d="M82.2 60.9c-.7-4.7-5-6.5-6.4-10.7-2.3-7.7 1.6-16-2.3-23.8-7.6-15.2-24.1-9-36.4-5.5-6 1.7-10.1-.2-13 7-3.2 7.5-.4 15.9-1.4 23.5-.3 1.8 1 3.1.1 5-.6 1.3-4.4 1-5.1 2.7-1.9 4.2-.1 15.4 7.4 10.4.9 6.3-1.4 14.9 4 20.2 2.5 2.5 11.7 4 15.7 4.2 6.3.4 20.2-1.9 25-5.5 6.7-5 5.7-12 5.5-19.7 5 5.2 7.4-4.8 6.9-7.8z" fill="#e5b380"/>
  <path d="M66 74.9l-.5-3c0-.7.2-1.4-.4-2-.7-.6-3.7-.4-4.8-.3-4.6.3-9 2.5-13.4 3.1-2.3.3-5 1.7-7.4 1.6-.5 0-.9-.5-1.6-.5l-1.3.4a1 1 0 0 0-.7-.3c-1.7.5-1.3 2-.5 3.4 1 1.5 5.6 4.9 7.4 4 1-.4 1.6-1.2 2.4-1.7 1.4-.8 2.7-2.2 4-2.8s5.2-.8 6.3.3c.3.3.2 1.1.5 1.5a1.8 1.8 0 0 0 2.4.4c1-.4 1.4-1.3 2.2-1.9.4-.8.8-.9 1.4-.4l1.6.6a2 2 0 0 0 2.4-2.4z" fill="#9b724e"/>
  <path d="M79.4 35.5c.7-13.3-1.3-27-16-29-11-1.5-23 5-28 10-7-3-9 1-13 9-2.3 4.6-6 35.4 1.4 32 2-1 .7-13 2.6-15.7 1.5-2.3 6.6-.6 8-3.6 1.7-3.5-9.4 1.4-10 2 1.2-14.7-.2-16.1 16-19.7 27-6 34.7-1.6 34.8 16.5-.7-.1-10.4-1-10.8 1.5 2 1 10.2 2.7 11 4 .7 1 0 12 3 12 1 0-1-8 1-19z" fill="#664337"/>
  <path class="cls-4" d="M65.4 66.6c-2.7-.8-6 .6-8.5 1.3-3.2 1-6.5 2-9.8 2.7a35.8 35.8 0 0 1-9.6.8c-.8 0-3.5-.9-4.2-.3-1 .9 0 1.4.8 1.8 2.9 1 7 .4 10 0 3.5-.4 6.9-1.2 10.3-1.8 3-.5 6-.5 9-1 1-.1 2.5-.3 3-1.2a1.6 1.6 0 0 0-1-2.3z"/>
  <path d="M65 77.3c-2.3-1.3-4.5-.7-6.9 0s-3.1 0-5.2-.5c-2.5-.6-4.5.6-6.6 1.8-1 .6-4.2 1.6-3.5 3.4.4 1 4.4.9 5.4 1a34.4 34.4 0 0 0 8.4-.7c2.3-.4 5.8-.5 8-1.5 1.3-.7 2-2.5.4-3.5z" fill="#994f4f"/>
  <path class="cls-4" d="M64.6 78.7c-3.8.8-7.5 2-11.3 2.8-1 .2-3.3.2-3.3 1.7s2 1 3 .9c3-.4 6.1-.4 9-1.2 1.3-.3 3.5-.9 4-2a1.4 1.4 0 0 0-1.4-2.2zM36.9 52.3c-.2-2.4-1.3-4.6-4.1-4.2-1.7.3-4.3 1-4.4 3.1-.3 5.2 9 7.3 8.5 1zM72.4 48.4c-4-2.9-9.9 3-3.3 6.5 3.3 1.6 6.9-1.8 3.3-6.5z"/>
  <path class="cls-6" d="M34.4 52.2c0-2.6-4.3-1.6-3.3.8.7 1.6 3.5 1.2 3.3-.8zM71.8 50.6c-1.1-2.5-5.3 0-3.3 2 1.6 1.8 5.5-.1 3.3-2z"/>
  <path d="M32.1 47.8c-5.6.9-5.9 8.5 0 8.8 7.1.4 7-9.8 0-8.8zm4.3 5.5c-1.3 3.5-8.5 3-7.6-1.3 1-4.6 9.5-3.6 7.6 1.3zM74.4 49.5c-1-1.5-4.2-2.7-6-2.4a3.6 3.6 0 0 0-2.5 4.7 6 6 0 0 0 5 4.3c3.3.1 5-4.1 3.5-6.6zM71.7 55c-3.3.8-7.2-5-3.4-6.4 5-2 7.6 5.3 3.4 6.4zM75.7 42.4a17.3 17.3 0 0 0-5.3-3 25.7 25.7 0 0 0-3-.7l-2-.4c-1.1-.5-1.4-.2-.8.8a7.2 7.2 0 0 1 4.2-1.8c1.1-.2 4 .4 4.9 0 2-1-1-1.2-1.9-1.2a14.7 14.7 0 0 0-5.4.6c-.9.4-3.4 1.3-2.3 2.5.5.6 3.9.7 4.8 1a18.5 18.5 0 0 1 4.6 2c.2 0 1.5 1.2 1.9 1s.7-.5.3-.8z"/>
  <path d="M80.9 55.3a15 15 0 0 0-1.6-1 .5.5 0 0 0 0-.6c.5-.5 0-1.4-.2-2.7a43 43 0 0 1-.2-5.8c.2-4.3.7-8.6 1-13a29.5 29.5 0 0 0-7.2-21.6c-5-5.8-14-5.3-20.8-3.4a40 40 0 0 0-10.1 4.3 26.3 26.3 0 0 0-4.4 3.3c-.3.3-1.6 1.3-1.6 1.9 0 .3.3 1.2.9.5A32.7 32.7 0 0 1 56 7.4c3.8-.6 8-.7 11.7 1S73 13 75 16A25 25 0 0 1 79 27c.3 4.2-.4 8.4-.7 12.6a68.1 68.1 0 0 0-.2 12 18.4 18.4 0 0 0 .4 2.3.7.7 0 0 0 0 .1 3.8 3.8 0 0 0-.5-.1c-.2-.1-.7-.5-1.1-.4-.2-6-.6-12-1.2-18-.5-4.3-1.2-9-3.8-12.7s-6.4-4.8-10.6-5l-6.5.2c-.7 0-3-.5-3.5 0a1.9 1.9 0 0 0-.4.3 5 5 0 0 0-1-.3c-2.3 0-4.6.8-6.8 1.3-2.5.6-5 1-7.6 1.7-4.1 1-8.6 2.4-10.1 6.8-1.6 4.8-1.5 10.8-1.7 15.8a1.1 1.1 0 0 0 0 1v12l-2.3.2c-2-9.5-3-19.9.4-29.1a25 25 0 0 1 6.6-10.8c1.6-1.3 3.4-1.9 5.3-.8.5.2 1.3 1.4 2 .9s-.7-1.4-1.1-1.6c-8.2-5.1-14 11-15.2 16.4a50.6 50.6 0 0 0-.7 14.5c.2 2.4.5 4.8 1 7.3A33.8 33.8 0 0 0 20 57a5.4 5.4 0 0 0-2.7 1.4c-1.7 1.8-1.1 4.8-.4 7s1.6 4.5 3.6 5.5a3.1 3.1 0 0 0 2.9.2 2.7 2.7 0 0 0 1-1l.6 4.6c.6 4.3.5 10 2.6 14s7.1 4.7 11.1 5.1a69.7 69.7 0 0 0 15.4-.6c4.9-.6 9.8-1.3 14.4-3.1 4.2-1.8 7.5-4.5 8.3-9.3a61.4 61.4 0 0 0 .3-11.1 3.5 3.5 0 0 0 .6.4c5.4 3 6-5.6 6-8.6a7 7 0 0 0-3-6.3zM24 69.7c-.5-.2-1.4.8-2.2.7a3.6 3.6 0 0 1-2-1.4 11.8 11.8 0 0 1-2.4-5.7c-.4-2.4 0-4.2 2.5-5 1-.4 2.4-.2 3.3-.6a2.8 2.8 0 0 0 .4-.3c.2 4.1.4 8.3.9 12.5a.9.9 0 0 0-.5-.2zm.9-30.4a4.7 4.7 0 0 0 2-.6 14.7 14.7 0 0 1 4.7-1.3 7.6 7.6 0 0 1 2.2 0 2.4 2.4 0 0 1 .7.2 27.9 27.9 0 0 0-7.6 3.2 16.6 16.6 0 0 0-2.1 1.4l.1-2.9zm49.4 45.4c-2.1 3.2-6.1 4.6-9.7 5.6a87.9 87.9 0 0 1-15.4 2.4c-5 .4-10.1.6-15-.6-5-1.3-6.3-4.4-7-9.3A239.4 239.4 0 0 1 24.8 53v-9.6c1.3-2.1 8.1-4.3 9.5-4.7s3.8-.6 1.3-2c-1.5-.8-3.5-.6-5-.3s-3.7.7-4.8 1.7a4.8 4.8 0 0 0-.8.7l.1-1.6c.3-3.4.1-7.6 2-10.7 2-3.4 7-4.1 10.6-5l6.7-1.5c1.7-.4 5.5-1.9 7.1-.6s1.2 4.6 1.2 6.2c0 2.7-.3 5.4-.4 8-.2 5 0 10 .2 15 .2 4 1.5 11-2.2 13.7-1.5 1.1-3.5 1.2-5.3 1a10.5 10.5 0 0 1-2.2-.4c-.6-.1-2.4-1.5-2.7-1.5-2 .2 1 2 1.6 2.3a12.7 12.7 0 0 0 5.7.7c4.2-.5 6-3.7 6.3-7.6.4-4.7-.1-9.6-.3-14.4-.1-5 .1-10 .3-15 .1-2.6.6-6.8-1.4-8.6 4.4.1 9-.8 13.2.5 3.6 1 6 3.9 7.2 7.3 1.8 4.6 2 9.6 2.3 14.4l.8 14.7c.2 5.1.3 10.3.2 15.4 0 4.3.8 9.7-1.6 13.5zm4.4-15.2c-.4-.1-1-1-1.6-1.3v-1.6q0-6-.3-12.1c2.2 1 4.5 2 5.4 4.3.8 2 .4 5 0 7.3-.2 1.8-1.2 4.1-3.5 3.4z"/>
  <path d="M32.3 70.5c7.1 1.8 14.4.3 21.4-1.3 3.3-.8 6.7-1.6 10.1-2 1.8-.3 3.5-.4 5.3-.5 1.4-.2 2.2-.6.5-1.1-2.6-.8-7 .6-9.7 1.1L49.8 69a52.5 52.5 0 0 1-9.9 1.2 30.2 30.2 0 0 1-5.8-.4c-.3-.1-1.6-.6-2-.3s-.3.9.2 1z"/>
  <path d="M31.5 70.9c3 2 3 6.5 5.8 8.9S44 83.5 47.7 84c5.7.8 18.3 2 18.9-6.4a23 23 0 0 0-.7-5.2 9.8 9.8 0 0 1-.2-2.7c.1-.6.9-2 .7-2.6-.7-1.7-1.8 2.6-1.8 3.1 0 2.1.8 4 1 6.2.5 8.4-12.2 7.3-17.5 6.5-4-.6-8.7-2-11.3-5.2-1.3-1.7-1.7-4-2.9-5.8-.3-.5-1.2-2-1.8-2-.5-.1-1.3.4-.6.9z"/>
  <path d="M36 74A108.7 108.7 0 0 1 51.5 71l7.3-1c.7 0 5-.4 2.8-1.5-.5-.3-3 .4-3.6.5l-3.7.5-7.3 1-7.2 1.3c-.7.1-3.7.4-4 1-.3.2-.8 1.3.2 1zM44.5 81.2c2.1-1 4-2.6 6.2-3.5a5.5 5.5 0 0 1 2.2-.5c1.4 0 1 .6 1.8 1.3 1.5 1.6 3.2 1.4 5 .3 1.1-.6 3.4-2.5 1-2-1.5.4-2.8 2.5-4.6 1.7-.7-.3-.6-1.3-1.1-1.8a3.6 3.6 0 0 0-3-.6c-2 .3-3.6 1.4-5.2 2.4-.6.3-2.6 1.2-2.9 1.7s-.3 1.3.6 1zM49 83.2a91.7 91.7 0 0 0 9.8-1.8 45 45 0 0 0 4.8-1.4c.8-.3 3.1-.9 1.6-1.7-.6-.3-3.9 1.3-4.6 1.6a60.4 60.4 0 0 1-10.1 2c-.5 0-1.7 0-2 .4-.1.3-.1 1 .4.9zM32.6 51c-.5.8-.2 0-.7-.1s-2.4 4 1.2 3.2c3.2-.7 0-3.8-.5-3zm.2 2a2.6 2.6 0 0 0 .4-.7c.2.4.7.6-.4.8zM70.7 50.2a.4.4 0 0 0-.6.2c.1-.7.1-1.5-.6-.7-1 1.2-.5 4.3 1.5 3.3 1.4-.7.5-3.5-.3-2.8z"/>
</svg>
