<svg id="Layer_1" data-name="Layer 1" xmlns="http://www.w3.org/2000/svg" viewBox="0 0 64 64">
  <defs>
    <style>
      .cls-3{fill:#fff}
    </style>
  </defs>
  <path d="M33 32h-1c0-15-6-15-12-15-7 0-14 0-14-16h1c0 15 6 15 13 15 6 0 13 0 13 16z" fill="#93979a"/>
  <path d="M63 60a3 3 0 0 1-3 3H4a3 3 0 0 1-3-3V35a3 3 0 0 1 3-3h56a3 3 0 0 1 3 3z" fill="#d0d0d0"/>
  <path class="cls-3" d="M7 41a1 1 0 0 1-1 1H4a1 1 0 0 1-1-1v-2a1 1 0 0 1 1-1h2a1 1 0 0 1 1 1zM14 41a1 1 0 0 1-1 1h-3a1 1 0 0 1-1-1v-2a1 1 0 0 1 1-1h2a1 1 0 0 1 1 1v2zM20 41a1 1 0 0 1-1 1h-2a1 1 0 0 1-1-1v-2a1 1 0 0 1 1-1h2a1 1 0 0 1 1 1v2zM26 41a1 1 0 0 1-1 1h-2a1 1 0 0 1-1-1v-2a1 1 0 0 1 1-1h2a1 1 0 0 1 1 1zM32 41a1 1 0 0 1-1 1h-2a1 1 0 0 1-1-1v-2a1 1 0 0 1 1-1h2a1 1 0 0 1 1 1zM38 41a1 1 0 0 1-1 1h-2a1 1 0 0 1-1-1v-2a1 1 0 0 1 1-1h2a1 1 0 0 1 1 1zM44 41a1 1 0 0 1-1 1h-2a1 1 0 0 1-1-1v-2a1 1 0 0 1 1-1h2a1 1 0 0 1 1 1v2zM50 41a1 1 0 0 1-1 1h-2a1 1 0 0 1-1-1v-2a1 1 0 0 1 1-1h2a1 1 0 0 1 1 1zM53 47a1 1 0 0 1-1 1h-3a1 1 0 0 1-1-1v-2a1 1 0 0 1 1-1h3a1 1 0 0 1 1 1zM46 47a1 1 0 0 1-1 1h-2a1 1 0 0 1-1-1v-2a1 1 0 0 1 1-1h2a1 1 0 0 1 1 1zM40 47a1 1 0 0 1-1 1h-2a1 1 0 0 1-1-1v-2a1 1 0 0 1 1-1h2a1 1 0 0 1 1 1zM34 47a1 1 0 0 1-1 1h-2a1 1 0 0 1-1-1v-2a1 1 0 0 1 1-1h2a1 1 0 0 1 1 1zM28 47a1 1 0 0 1-1 1h-2a1 1 0 0 1-1-1v-2a1 1 0 0 1 1-1h2a1 1 0 0 1 1 1zM22 47a1 1 0 0 1-1 1h-2a1 1 0 0 1-1-1v-2a1 1 0 0 1 1-1h2a1 1 0 0 1 1 1zM16 47a1 1 0 0 1-1 1h-2a1 1 0 0 1-1-1v-2a1 1 0 0 1 1-1h2a1 1 0 0 1 1 1zM18 54a1 1 0 0 1-1 1h-2a1 1 0 0 1-1-1v-2a1 1 0 0 1 1-1h2a1 1 0 0 1 1 1zM16 60a1 1 0 0 1-1 1h-2a1 1 0 0 1-1-1v-2a1 1 0 0 1 1-1h2a1 1 0 0 1 1 1zM22 60a1 1 0 0 1-1 1h-2a1 1 0 0 1-1-1v-2a1 1 0 0 1 1-1h2a1 1 0 0 1 1 1zM24 54a1 1 0 0 1-1 1h-2a1 1 0 0 1-1-1v-2a1 1 0 0 1 1-1h2a1 1 0 0 1 1 1zM30 54a1 1 0 0 1-1 1h-2a1 1 0 0 1-1-1v-2a1 1 0 0 1 1-1h2a1 1 0 0 1 1 1zM36 54a1 1 0 0 1-1 1h-2a1 1 0 0 1-1-1v-2a1 1 0 0 1 1-1h2a1 1 0 0 1 1 1zM42 54a1 1 0 0 1-1 1h-2a1 1 0 0 1-1-1v-2a1 1 0 0 1 1-1h2a1 1 0 0 1 1 1v2zM48 54a1 1 0 0 1-1 1h-2a1 1 0 0 1-1-1v-2a1 1 0 0 1 1-1h2a1 1 0 0 1 1 1zM50 60a1 1 0 0 1-1 1h-2a1 1 0 0 1-1-1v-2a1 1 0 0 1 1-1h2a1 1 0 0 1 1 1zM61 41a1 1 0 0 1-1 1h-7a1 1 0 0 1 0-1v-2a1 1 0 0 1 0-1h7a1 1 0 0 1 1 1v2zM61 60a1 1 0 0 1-1 1h-7a1 1 0 0 1 0-1v-2a1 1 0 0 1 0-1h7a1 1 0 0 1 1 1v2zM61 54a1 1 0 0 1-1 1h-9a1 1 0 0 1-1-1v-2a1 1 0 0 1 1-1h9a1 1 0 0 1 1 1zM11 54a1 1 0 0 1 0 1H4a1 1 0 0 1-1-1v-2a1 1 0 0 1 1-1h7a1 1 0 0 1 0 1v2zM61 47a1 1 0 0 1-1 1h-4a1 1 0 0 1-1-1v-2a1 1 0 0 1 1-1h4a1 1 0 0 1 1 1zM9 47a1 1 0 0 1-1 1H4a1 1 0 0 1-1-1v-2a1 1 0 0 1 1-1h4a1 1 0 0 1 1 1zM9 60a1 1 0 0 1-1 1H4a1 1 0 0 1-1-1v-2a1 1 0 0 1 1-1h4a1 1 0 0 1 1 1zM44 60a1 1 0 0 1-1 1H25a1 1 0 0 1-1-1v-2a1 1 0 0 1 1-1h18a1 1 0 0 1 1 1zM8 36H6a1 1 0 1 1 0-2h2a1 1 0 1 1 0 2zM14 36h-1a1 1 0 1 1 0-2h1a1 1 0 1 1 0 2zM21 36h-2a1 1 0 1 1 0-2h2a1 1 0 1 1 0 2zM27 36h-2a1 1 0 1 1 0-2h2a1 1 0 1 1 0 2zM33 36h-2a1 1 0 1 1 0-2h2a1 1 0 1 1 0 2zM39 36h-2a1 1 0 1 1 0-2h2a1 1 0 1 1 0 2zM45 36h-2a1 1 0 1 1 0-2h2a1 1 0 1 1 0 2zM51 36h-1a1 1 0 1 1 0-2h1a1 1 0 1 1 0 2zM58 36h-2a1 1 0 1 1 0-2h2a1 1 0 1 1 0 2z"/>
</svg>
