<svg id="Layer_1" data-name="Layer 1" xmlns="http://www.w3.org/2000/svg" viewBox="0 0 64 64">
  <defs>
    <style>
      .cls-1{fill:#46474a}.cls-2{fill:#2590ba}
    </style>
  </defs>
  <path class="cls-1" d="M48 45c-7 12-7 13-10 12s-4-4 2-16 9-12 12-10 2 2-4 14z"/>
  <path class="cls-2" d="M54 49c-4 7-10 11-12 10-3-2-2-2 5-14s6-14 9-12c2 2 2 8-2 16z"/>
  <path class="cls-1" d="M16 45c7 12 7 13 10 12s4-4-2-16-9-12-12-10-2 2 4 14z"/>
  <path class="cls-2" d="M10 49c4 7 10 11 12 10 3-2 2-2-5-14s-6-14-9-12c-2 2-2 8 2 16z"/>
  <path d="M11 58s6 1 6 0c3-8-11-13-11-22C6 21 17 9 32 9s26 12 26 27c0 9-14 14-11 22h6a31 31 0 0 0 9-22C62 19 49 5 32 5S2 19 2 36a31 31 0 0 0 9 22z" fill="#39a9ce"/>
  <path class="cls-1" d="M15 18c3-1 8-6 17-6s14 5 17 6l4-2A26 26 0 0 0 32 6a26 26 0 0 0-21 10l4 2z"/>
</svg>
