<svg id="Layer_1" data-name="Layer 1" xmlns="http://www.w3.org/2000/svg" viewBox="0 0 64 64">
  <defs>
    <style>
      .cls-3{fill:#7d8a90}
    </style>
  </defs>
  <path d="M2 22s26 27 29 40c0 0 7-17 30-24 0 0-8-18-30-33 0 0-22 6-29 17z" fill="#eed7b1"/>
  <path d="M5 10s20 35 21 48c0 0 10-13 33-12 0 0-4-21-22-43 0 0-23-1-32 7z" fill="#fff6d6"/>
  <path class="cls-3" d="M20 12l1-1 1-1 2-2a8 8 0 0 1 2-1l4-1-2 4a13 13 0 0 0 0 2 13 13 0 0 1 1-2l1-1a9 9 0 0 0 2-1h5-3a4 4 0 0 0-1-1l-2 1-2 1 1-2a6 6 0 0 0 0-2l-4 1a8 8 0 0 0-2 2l-2 2-2 2h-1l-2 1a4 4 0 0 0 0-2l-2 2 1-4a5 5 0 0 0-2 2l-2 3 1-4-1 2a8 8 0 0 0 0 3l4-5a15 15 0 0 0-1 4l2-2c0 1 0 2 1 1a13 13 0 0 0 1-1h1zM40 16l-1-1h-6l-1 2v-3a3 3 0 0 0-1 2v1a2 2 0 0 1-2 1 16 16 0 0 1 0-4l-1 3-1 1v-1a26 26 0 0 1-2 3h-1a3 3 0 0 1 0-2l-2 2v-1 2a11 11 0 0 0 0-2 7 7 0 0 0-3 3 3 3 0 0 0 0-1v2a12 12 0 0 1 2-3 23 23 0 0 0-1 4 11 11 0 0 0 1-2l1-1h1a4 4 0 0 0 1-2c-1 2 1 2 2 1a13 13 0 0 0 1-2 1 1 0 0 0 1 0c1 0 3 1 4-1 1 2 1 0 1-1l4-1h2l1 1zM31 25zM30 25zm0 0v-1-1l-1 1-1 2v-1l-1 1-2 3 2-5a9 9 0 0 0-4 6l3-5a26 26 0 0 0-1 4h1a3 3 0 0 0 1-1 5 5 0 0 0 1-1l2-1a5 5 0 0 0 2-1 9 9 0 0 1-1 0zM41 44zM52 38zm0 2a5 5 0 0 1-1 0v-1c1-1 1 1 1 1zm-1 1v-1 1zm-2 0l-1-1 2 1a2 2 0 0 1-1 0zm-6 1c-3-1 0-4 2-4a9 9 0 0 1-2 4zm-2 2a3 3 0 0 1-2 1 9 9 0 0 1 1-4l1-1v1h1a2 2 0 0 0 1 1 11 11 0 0 1-2 2zm15-5a50 50 0 0 0-6-2 9 9 0 0 1 2 1l-1 2h-3c-1 1-3 3-5 2a9 9 0 0 0 2-5c-2 1-3 2-3 4l-2-1a4 4 0 0 0-1 2 12 12 0 0 0 0 3c2 0 3-2 4-3 2 1 3 0 5-1a1 1 0 0 0 1 1l2-1h2a4 4 0 0 1-1-2 11 11 0 0 0 4 0z"/>
  <path transform="rotate(-45 46 18)" fill="#ffce30" d="M35 13h21v10H35z"/>
  <path d="M60 5l-1-1a4 4 0 0 0-6 0l-3 3 7 7 3-3a4 4 0 0 0 0-6z" fill="#ed4c5c"/>
  <path transform="rotate(-45 52 12)" fill="#92a2aa" d="M51 7h3v10h-3z"/>
  <path transform="rotate(-45 52 12)" fill="#c7d3d8" d="M51 8h3v8h-3z"/>
  <path fill="#fcd0ac" d="M35 22l-3 8 2 2 8-3-7-7z"/>
  <path d="M31 31c0 2 0 2 2 2l3-2-3-3z" fill="#333"/>
  <path transform="rotate(-45 43 17)" fill="#ffde83" d="M33 15h18v3H33z"/>
  <path transform="rotate(-45 47 21)" fill="#f5863b" d="M38 20h18v3H38z"/>
</svg>
