<svg id="Layer_1" data-name="Layer 1" xmlns="http://www.w3.org/2000/svg" viewBox="0 0 64 64">
  <defs>
    <style>
      .cls-2{fill:#ef5b7a}.cls-3{fill:#fff}
    </style>
  </defs>
  <rect x="3.65" y="16.05" width="56.7" height="44.29" rx="1.77" fill="#d9e3e8"/>
  <rect class="cls-2" x="6.31" y="18.71" width="51.38" height="38.98" rx="1.77"/>
  <path class="cls-3" d="M9.99 30.18v-9.76h2.03v3.72h3.79v-3.72h2.03v9.76h-2.03v-4.36h-3.79v4.36H9.99zM27.01 22.14h-5.16v2.08h4.74v1.69h-4.74v2.51h5.4v1.76h-7.39v-9.76h7.15v1.72zM28.84 20.42h2.04v8h4.87v1.76h-6.91v-9.76zM37.12 20.42h2.04v8h4.87v1.76h-6.91v-9.76zM51.65 27.83a4.05 4.05 0 0 0 .71-2.55 4 4 0 0 0-.71-2.54 2.54 2.54 0 0 0-3.86 0 4 4 0 0 0-.72 2.54 4 4 0 0 0 .72 2.55 2.54 2.54 0 0 0 3.86 0zm1.27 1.48a4.25 4.25 0 0 1-3.2 1.14 4.23 4.23 0 0 1-3.19-1.14 5.26 5.26 0 0 1-1.49-4 5.15 5.15 0 0 1 1.49-4 4.23 4.23 0 0 1 3.19-1.14 4.25 4.25 0 0 1 3.2 1.14 5.15 5.15 0 0 1 1.48 4 5.26 5.26 0 0 1-1.48 4z"/>
  <path d="M36.43 16.08a1.71 1.71 0 0 1-1.68 1.75h-5.5a1.71 1.71 0 0 1-1.68-1.75V6.21a1.71 1.71 0 0 1 1.68-1.74h5.5a1.71 1.71 0 0 1 1.68 1.74z" fill="#8a969d"/>
  <path d="M36.43 15.27A1.71 1.71 0 0 1 34.75 17h-5.5a1.71 1.71 0 0 1-1.68-1.74V5.39a1.71 1.71 0 0 1 1.68-1.74h5.5a1.71 1.71 0 0 1 1.68 1.74v9.88z" fill="#b0bcc5"/>
  <rect class="cls-3" x="8.97" y="32" width="46.07" height="23.03" rx="1.77"/>
  <path class="cls-2" d="M17 33.75h1.3V38h-.82v-3.58L16.69 38h-.86L15 34.42V38h-.82v-4.2h1.28l.76 3.3zM19.17 38.55h.1a1.76 1.76 0 0 0 .23 0 .48.48 0 0 0 .18-.07.41.41 0 0 0 .13-.2 1 1 0 0 0 .06-.19l-1.14-3.25h.9l.68 2.3.64-2.3h.87l-1.07 3.06a4.44 4.44 0 0 1-.49 1.1.94.94 0 0 1-.72.21h-.37zM26.42 35a1 1 0 0 1 .31.84V38h-.83v-1.94a1 1 0 0 0-.07-.38.45.45 0 0 0-.45-.23.54.54 0 0 0-.56.35 1.07 1.07 0 0 0-.08.47V38h-.82v-3.1h.79v.45A1.15 1.15 0 0 1 25 35a1 1 0 0 1 .63-.19 1.16 1.16 0 0 1 .79.19zM29.21 36.44l-.15.08-.22.06h-.19a1.09 1.09 0 0 0-.37.11.36.36 0 0 0-.19.34.38.38 0 0 0 .11.3.43.43 0 0 0 .29.1.8.8 0 0 0 .51-.13.63.63 0 0 0 .23-.56v-.3zm-.49-.38A1.19 1.19 0 0 0 29 36a.25.25 0 0 0 .18-.23.26.26 0 0 0-.14-.26.81.81 0 0 0-.39-.08.54.54 0 0 0-.42.14.76.76 0 0 0-.11.29h-.79a1.25 1.25 0 0 1 .23-.67 1.36 1.36 0 0 1 1.11-.41 2 2 0 0 1 .91.2.78.78 0 0 1 .4.77V37.53a.37.37 0 0 0 0 .22.19.19 0 0 0 .12.09V38h-.89a1.54 1.54 0 0 1 0-.17 1.11 1.11 0 0 1 0-.19 2 2 0 0 1-.39.31 1.21 1.21 0 0 1-.6.15 1 1 0 0 1-.7-.24.84.84 0 0 1-.28-.68.9.9 0 0 1 .45-.84 2 2 0 0 1 .72-.19zM34.61 34.85a1 1 0 0 1 .37.28.9.9 0 0 1 .17.4 2.69 2.69 0 0 1 0 .46v2h-.84V36a.79.79 0 0 0-.05-.29.43.43 0 0 0-.4-.22.48.48 0 0 0-.47.28 1 1 0 0 0-.06.36V38h-.82v-1.9a1 1 0 0 0-.06-.4.4.4 0 0 0-.4-.23.49.49 0 0 0-.47.23.91.91 0 0 0-.06.38V38h-.83v-3.1h.79v.45a1.15 1.15 0 0 1 .32-.35.91.91 0 0 1 .61-.19 1 1 0 0 1 .58.16 1 1 0 0 1 .26.37 1.09 1.09 0 0 1 .4-.4 1.28 1.28 0 0 1 .56-.13 1.1 1.1 0 0 1 .4.04zM36.74 35.61a.83.83 0 0 0-.22.48h1.4a.64.64 0 0 0-.21-.49.72.72 0 0 0-.48-.17.64.64 0 0 0-.49.18zM38 34.9a1.37 1.37 0 0 1 .53.46 1.55 1.55 0 0 1 .25.65 4.71 4.71 0 0 1 0 .61H36.5a.74.74 0 0 0 .33.66.79.79 0 0 0 .45.12.73.73 0 0 0 .45-.14 1 1 0 0 0 .17-.26h.83a1 1 0 0 1-.31.56 1.49 1.49 0 0 1-1.16.46 1.68 1.68 0 0 1-1.1-.39 1.48 1.48 0 0 1-.47-1.24 1.67 1.67 0 0 1 .43-1.24 1.47 1.47 0 0 1 1.11-.43 1.94 1.94 0 0 1 .77.18zM40.81 34.84h.83V38h-.83zm.83-.37h-.83v-.75h.83zM43.05 37a.56.56 0 0 0 .12.31.73.73 0 0 0 .56.16.81.81 0 0 0 .38-.07.24.24 0 0 0 .14-.22.22.22 0 0 0-.11-.2 4.74 4.74 0 0 0-.85-.25 1.76 1.76 0 0 1-.75-.33.72.72 0 0 1-.22-.56 1 1 0 0 1 .34-.74 1.42 1.42 0 0 1 1-.31 1.74 1.74 0 0 1 1 .24 1 1 0 0 1 .42.8h-.82a.57.57 0 0 0-.08-.25.57.57 0 0 0-.46-.17.62.62 0 0 0-.38.09.24.24 0 0 0-.11.19.21.21 0 0 0 .12.2 4.62 4.62 0 0 0 .85.23 1.61 1.61 0 0 1 .72.34.81.81 0 0 1 .24.59.92.92 0 0 1-.34.75 1.59 1.59 0 0 1-1.07.3 1.62 1.62 0 0 1-1.08-.31 1 1 0 0 1-.35-.79zM45.66 37.1h.87v.85h-.87zM47.28 37.1h.86v.85h-.86zM48.91 37.1h.86v.85h-.86z"/>
</svg>
