<svg id="Layer_1" data-name="Layer 1" xmlns="http://www.w3.org/2000/svg" viewBox="0 0 64 64">
  <defs>
    <style>
      .cls-2{fill:#87957a}.cls-4{fill:#3f4347}.cls-6{fill:#ef5b7a}.cls-7{fill:#eef4d7}.cls-8{fill:#555c62}
    </style>
  </defs>
  <path d="M57 13a7 7 0 0 0-3-2c-3-1-11-1-12-5-1-6-5 0-6 0s-2-4-4-4-2 4-4 4-5-6-6 0c-1 4-9 4-12 5a7 7 0 0 0-3 2 1 1 0 0 0 1 1c2-2 5-2 7-3a29 29 0 0 0 6-1c3-1 3-5 3-5 1 0 3 3 5 3l3-3 3 3c2 0 4-3 5-3s1 4 3 5a29 29 0 0 0 6 1c2 1 5 1 7 3a1 1 0 0 0 1-1z" fill="#67c2e7"/>
  <path class="cls-2" d="M52 55a5 5 0 0 1-4 5H16a5 5 0 0 1-4-5V35h40z"/>
  <path d="M32 12c-15 0-20 8-20 23v20h40V35c0-15-5-23-20-23z" fill="#b5c3a6"/>
  <path class="cls-2" d="M12 54a2 2 0 0 1-2-3v-7a2 2 0 0 1 2-2zM52 42a2 2 0 0 1 2 2v7a2 2 0 0 1-2 3z"/>
  <path class="cls-4" d="M8 19H6v30h4v-2H8V19zM56 19v28h-2v2h4V19h-2z"/>
  <circle cx="57" cy="19" r="4" fill="#2590ba"/>
  <circle class="cls-6" cx="7" cy="19" r="4"/>
  <circle class="cls-7" cx="22" cy="31" r="8" transform="rotate(-79 22 31)"/>
  <circle class="cls-8" cx="22" cy="31" r="6"/>
  <circle class="cls-6" cx="22" cy="31" r="2"/>
  <circle class="cls-7" cx="42" cy="31" r="8" transform="rotate(-79 42 31)"/>
  <circle class="cls-8" cx="42" cy="31" r="6" transform="rotate(-79 42 31)"/>
  <path class="cls-6" d="M42 28a2 2 0 1 1-2 3 2 2 0 0 1 2-3z"/>
  <path class="cls-7" d="M20 53c-7 0-7-13 0-13h24c7 0 7 13 0 13z"/>
  <path class="cls-2" d="M21 51c-6 0-6-10 0-10h22c6 0 6 10 0 10z"/>
  <path class="cls-4" d="M21 49a1 1 0 0 1-1 0v-6a1 1 0 0 1 1 0zM26 49a1 1 0 0 1-2 0v-6a1 1 0 0 1 2 0zM31 49a1 1 0 0 1-2 0v-6a1 1 0 0 1 2 0zM35 49a1 1 0 0 1-2 0v-6a1 1 0 0 1 2 0zM40 49a1 1 0 0 1-2 0v-6a1 1 0 0 1 2 0zM44 49a1 1 0 0 1-2 0v-6a1 1 0 0 1 2 0z"/>
  <circle cx="32" cy="36" r="2" fill="#f4f5f5"/>
  <path class="cls-8" transform="rotate(-45 32 36)" d="M32 34h1v4h-1z"/>
</svg>
