<svg id="Layer_1" data-name="Layer 1" xmlns="http://www.w3.org/2000/svg" viewBox="0 0 64 64">
  <defs>
    <style>
      .cls-1{fill:#3f4347}.cls-2{fill:#93979a}
    </style>
  </defs>
  <path class="cls-1" d="M14.2 28h35.7v1H14.2z"/>
  <path class="cls-2" d="M45.9 24.6V39C45.9 49.5 39.2 54 32 54S18.1 49.5 18.1 39V24.6h-2v14.3c0 12 7.6 16.9 15.9 16.9s15.8-5 15.8-16.9V24.6z"/>
  <path class="cls-2" d="M30 55.8h4v4h-4z"/>
  <path class="cls-1" d="M21.1 25.1V38A10.7 10.7 0 0 0 32 49a10.7 10.7 0 0 0 10.9-11V25.1zM29 51.8h5.9v5H29z"/>
  <path class="cls-2" d="M32 2.3c-6.1 0-10.9 3.8-10.9 9.9V25h21.8v-13c0-6-4.8-9.8-10.9-9.8z"/>
  <path d="M32 3c-5.6 0-10 3.7-10 9.6v12.5h20V12.6c0-5.9-4.4-9.5-10-9.5z" fill="#d0d0d0"/>
  <path class="cls-1" d="M45.9 61.7H18a35.9 35.9 0 0 1 13.9-3 35.9 35.9 0 0 1 13.9 3z"/>
  <path fill="#afb7b7" d="M20.1 25.1h23.8V32H20.1z"/>
  <path class="cls-1" d="M19.1 24.6h25.8v2H19.1zM19.1 27.5h25.8v2H19.1zM19.1 30.5h25.8v2H19.1zM13.2 25.6h2v5.9h-2zM48.8 25.6h2v5.9h-2z"/>
  <path class="cls-2" d="M25.4 22.6a1.2 1.2 0 0 1-1.3 1.2 1.2 1.2 0 0 1-1.4-1 1.3 1.3 0 0 1 1.3-1.3 1.2 1.2 0 0 1 1.4 1.1zM30.7 22.5a1.3 1.3 0 0 1-2.7 0 1.3 1.3 0 0 1 1.3-1.3 1.3 1.3 0 0 1 1.4 1.3zM36 22.6a1.3 1.3 0 0 1-2.7 0 1.3 1.3 0 0 1 1.4-1.3 1.3 1.3 0 0 1 1.3 1.3zM41.3 22.7a1.2 1.2 0 0 1-1.3 1.1 1.2 1.2 0 0 1-1.3-1.2 1.2 1.2 0 0 1 1.3-1 1.3 1.3 0 0 1 1.3 1.1zM25.3 16.3a1.5 1.5 0 0 1-1.3 1.4c-.7.2-1.3-.2-1.3-.8a1.7 1.7 0 0 1 1.3-1.5 1 1 0 0 1 1.3 1zM30.6 15.7a1.4 1.4 0 0 1-1.3 1.4 1.2 1.2 0 0 1-1.4-1.2 1.4 1.4 0 0 1 1.4-1.4 1.2 1.2 0 0 1 1.3 1.2zM36 16a1.2 1.2 0 0 1-1.3 1 1.4 1.4 0 0 1-1.3-1.3 1.2 1.2 0 0 1 1.3-1.2 1.4 1.4 0 0 1 1.4 1.4zM41.3 17c0 .5-.6.9-1.3.7a1.5 1.5 0 0 1-1.3-1.4 1 1 0 0 1 1.3-.9 1.7 1.7 0 0 1 1.3 1.5zM28 19.2a1.4 1.4 0 0 1-1.3 1.4 1.2 1.2 0 0 1-1.3-1.1 1.4 1.4 0 0 1 1.3-1.4 1.2 1.2 0 0 1 1.3 1.1zM33.4 19.1a1.4 1.4 0 0 1-2.7 0 1.4 1.4 0 0 1 2.7 0zM38.7 19.5a1.2 1.2 0 0 1-1.4 1 1.4 1.4 0 0 1-1.3-1.3 1.2 1.2 0 0 1 1.4-1 1.4 1.4 0 0 1 1.3 1.3zM27.9 12.6a1.6 1.6 0 0 1-1.3 1.5c-.8 0-1.4-.3-1.4-1a1.7 1.7 0 0 1 1.3-1.5 1 1 0 0 1 1.4 1zM33.4 12.3a1.4 1.4 0 0 1-2.8 0 1.4 1.4 0 0 1 2.8 0zM38.8 13.1c0 .7-.6 1-1.3 1a1.6 1.6 0 0 1-1.4-1.5 1 1 0 0 1 1.4-1 1.7 1.7 0 0 1 1.3 1.5zM25.2 10a2 2 0 0 1-1.3 1.6c-.6.3-1.2 0-1.2-.5A2.2 2.2 0 0 1 24 9.4c.7-.4 1.3 0 1.3.6zM30.6 8.9a1.5 1.5 0 0 1-1.4 1.4 1.1 1.1 0 0 1-1.4-1 1.6 1.6 0 0 1 1.4-1.5 1.2 1.2 0 0 1 1.4 1zM36.2 9.3a1.1 1.1 0 0 1-1.4 1 1.5 1.5 0 0 1-1.4-1.5 1.2 1.2 0 0 1 1.4-1 1.6 1.6 0 0 1 1.4 1.5zM41.3 11c0 .7-.5.9-1.2.6a2 2 0 0 1-1.3-1.6c0-.7.6-1 1.3-.6a2.2 2.2 0 0 1 1.2 1.7zM27.8 6a1.8 1.8 0 0 1-1.3 1.5c-.8.3-1.4 0-1.4-.7a2 2 0 0 1 1.3-1.7 1 1 0 0 1 1.4.8zM33.4 5.5a1.4 1.4 0 0 1-2.8 0 1.4 1.4 0 0 1 2.8 0zM38.9 6.8c0 .7-.6 1-1.4.7A1.8 1.8 0 0 1 36.3 6a1 1 0 0 1 1.4-.8 2 2 0 0 1 1.3 1.7z"/>
</svg>
