<svg id="Layer_1" data-name="Layer 1" xmlns="http://www.w3.org/2000/svg" viewBox="0 0 64 64">
  <defs>
    <style>
      .cls-3{fill:#ffce30}.cls-4{fill:#5a4740}
    </style>
  </defs>
  <path d="M12.7 30.2v7c0 14.3 38.6 14.3 38.6 0v-7z" fill="#5a6167"/>
  <path fill="#3f4347" d="M62.7 25.4L32 39.2 1.3 25.4 32 11.6l30.7 13.8z"/>
  <path class="cls-3" d="M31.9 24.7l-15.4 7a.7.7 0 0 0-.3.6v6.9c0 .8 1 .8 1 0v-6.5l15-6.7c.5-.3.3-1.6-.3-1.3z"/>
  <path class="cls-3" d="M16.7 36.7a2.3 2.3 0 0 1 1.9 2.5 2.3 2.3 0 0 1-2 2.5 2.3 2.3 0 0 1-1.9-2.5 2.3 2.3 0 0 1 2-2.5z"/>
  <path class="cls-3" d="M16.7 52.5c1 0 1.9-.6 1.9-1.3v-12h-3.9v12c0 .7.9 1.3 2 1.3z"/>
  <path class="cls-4" d="M18 39.4l-.2.1v12.7h.2zM17.2 39.7H17v12.7h.2zM16.4 39.8h-.2v12.6h.2zM15.6 39.5l-.2-.1V52l.2.1z"/>
</svg>
