<svg version="1" id="Layer_1" xmlns="http://www.w3.org/2000/svg" viewBox="0 0 64 64">
  <style>
    .st0{fill:#2590ba}.st2{fill:#67c2e7}.st3{fill:#f3f602}.st7{fill:#cece05}
  </style>
  <path class="st0" d="M33 30v32s13-9 23-12c0 0 0-20 6-29l-29 9z"/>
  <path d="M42 57l1-29 10-3s-4 26-3 28l-8 4z" fill="#adad21"/>
  <path class="st2" d="M33 62c-7-5-15-9-23-12 0 0 1-16-4-28l27 8v32z"/>
  <path class="st3" d="M16 53l9 4V29l-12-3 3 27z"/>
  <path d="M33 30v6l26-9 3-6-29 9zM8 27l-2-5 27 8v6L8 27z" fill="#0a5c75"/>
  <path d="M3 19l29 6 31-7-30-2-30 3z" fill="#addff4"/>
  <path class="st2" d="M3 19l3 6 26 8v-8L3 19z"/>
  <path class="st0" d="M32 33l30-10 1-5-31 7v8z"/>
  <path d="M12 21l6 5 6-3 9-2 12 1 6 1 5-4-44 2z" fill="#eeae1e"/>
  <path class="st3" d="M24 23l9-2 12 1 11-3-23-2-21 4 12 2z"/>
  <path class="st3" d="M12 21v7l12 3v-8l-12-2z"/>
  <path class="st7" d="M45 22v7l10-3 1-7-11 3zm-6-5s0-7 6-13c0 0-4 2-6 1-2 0-3-3-3-3s-6 13-4 14l7 1z"/>
  <path class="st3" d="M30 21c-3-5-7-9-12-12l8-1c2-1 3-2 3-4 0 0 7 13 6 15s-5 2-5 2z"/>
  <path class="st7" d="M34 20c-4 2-9 3-14 3-16 0-19-12-2-11 13 1 16 8 16 8z"/>
  <path class="st7" d="M33 20l14-1c14-3 9-14-5-9-10 3-9 10-9 10z"/>
  <path d="M34 20l-9 2c-10 0-11-7-1-7 8 1 10 5 10 5zm0 0h10c9-3 6-10-3-7-8 2-7 7-7 7z" fill="#666416"/>
</svg>
