<svg xmlns="http://www.w3.org/2000/svg" viewBox="0 0 133.8 66.6">
  <path d="M22 36.4s-1.5-9.7-10.4-12.9-12.6 4-3 16.8 15 23.6 14.6 14-.7-33.5 11-44.7c9-8.7 16.9-4.5 16.3 8C49.7 32.8 30.4 55 30.4 55" stroke="#eb366e" fill="none" stroke-linecap="round" stroke-linejoin="round" stroke-width="5"/>
  <path d="M63 36a15.2 15.2 0 0 0-11-5.4c-8-.5-14.2 6.4 2.4 18.8s-19 22-12 4.8C46 45.5 58.9 35 64.9 24c7.1-13 10.1-26.6 8.4-18.6-3 14.5-3.7 54.2-3 51.1 4-21.9 33.7-52.2 31-50.3S69.3 35 74.8 33.6s54.1-12.5 56-9.4" stroke="#000" fill="none" stroke-linecap="round" stroke-linejoin="round" stroke-width="5"/>
</svg>
