<svg id="Layer_1" data-name="Layer 1" xmlns="http://www.w3.org/2000/svg" viewBox="0 0 64 64">
  <defs>
    <style>
      .cls-1{fill:#b1c0bf}.cls-2{fill:#e8e7e7}.cls-3{fill:#f3f602}.cls-4{fill:#f16f7f}.cls-5{fill:#62737b}.cls-6{fill:#d6edf0}
    </style>
  </defs>
  <rect class="cls-1" x="2.4" y="57.9" width="59.2" height="3.7" rx=".9"/>
  <path class="cls-2" d="M49.6 28.3H14.4A5.6 5.6 0 0 0 9 33.8V58H55V34a5.6 5.6 0 0 0-5.5-5.6z"/>
  <path class="cls-3" d="M33 2.4H14.3A5.6 5.6 0 0 0 9 7.9v16.7h29.6V7.9a5.6 5.6 0 0 0-5.6-5.5z"/>
  <path class="cls-1" d="M29.2 24.6h3.7v3.7h-3.7zM14.4 24.6h3.7v3.7h-3.7z"/>
  <path class="cls-4" d="M49.6 30.1H14.4a3.7 3.7 0 0 0-3.7 3.7v7.5h42.6v-7.4a3.7 3.7 0 0 0-3.7-3.8z"/>
  <path class="cls-3" d="M10.7 33.9h42.6v3.7H10.7z"/>
  <path class="cls-4" d="M36.6 22.8H10.7V7.8a3.7 3.7 0 0 1 3.7-3.7H33A3.7 3.7 0 0 1 36.6 8zM33 2.4H14.4A5.6 5.6 0 0 0 9 7.9v16.7h29.6V7.9a5.6 5.6 0 0 0-5.6-5.5z"/>
  <path class="cls-5" d="M24.6 41.3h14.8v16.6H24.6z"/>
  <path class="cls-6" d="M26.4 43.1h11.1v14.8H26.4z"/>
  <path class="cls-5" d="M31.1 43.1H33v14.8h-1.9zM10.7 44h13.9v1.9H10.7zM39.4 44h13.9v1.9H39.4z"/>
  <path class="cls-6" d="M10.7 45.9h13.9v9.3H10.7zM39.4 45.9h13.9v9.3H39.4z"/>
  <path class="cls-5" d="M10.7 53.3h13.9v1.9H10.7zM39.4 53.3h13.9v1.9H39.4z"/>
  <path class="cls-5" d="M10.7 44h1.9v11.1h-1.9zM51.4 44h1.9v11.1h-1.9z"/>
  <path class="cls-4" d="M30.8 6v6h-3.1V6h-3.1v9h6.2v5.9h3V6.1h-3zM19.7 15a3.1 3.1 0 0 0 2.1-.9 2.9 2.9 0 0 0 1-2V9a2.9 2.9 0 0 0-1-2.1 3.1 3.1 0 0 0-2.1-.9h-6.2v3h6.2v3h-3.1a3.2 3.2 0 0 0-2.2.9 3 3 0 0 0-1 2.1v5.8h9.3v-3h-6.1V15z"/>
  <path class="cls-2" d="M39.4 61.6H24.6l1.8-3.7h11.1l1.9 3.7z"/>
</svg>
