<svg id="Layer_1" data-name="Layer 1" xmlns="http://www.w3.org/2000/svg" viewBox="0 0 64 64">
  <defs>
    <style>
      .cls-1{fill:#7a8084}.cls-2{fill:#93979a}.cls-4{fill:#3f4347}.cls-6{fill:#202527}.cls-7{opacity:.5;isolation:isolate}.cls-8{fill:#f4f5f5}
    </style>
  </defs>
  <path class="cls-1" d="M31 53L17 11s34-8 34 10v26a2 2 0 0 1-1 2z"/>
  <path class="cls-2" d="M8 53a2 2 0 0 1-2-2V25C6 7 33 7 33 25v26a2 2 0 0 1-2 2H8z"/>
  <path d="M26 44a2 2 0 1 0 2 1 2 2 0 0 0-2-1z" fill="#ef5b7a"/>
  <path class="cls-1" d="M12 51h15a1 1 0 0 1 1 1v2a1 1 0 0 1-1 1H12a1 1 0 0 1-1-1v-2a1 1 0 0 1 1-1z"/>
  <path class="cls-4" d="M31 25c0 8-5 15-15 15-8 0-9-17-9-24a17 17 0 0 1 11-4 13 13 0 0 1 13 13z"/>
  <circle cx="15" cy="26" r="13" fill="#788187"/>
  <path class="cls-6" d="M27 26a12 12 0 1 1-12-11 12 12 0 0 1 12 11z"/>
  <circle class="cls-4" cx="15" cy="26" r="10"/>
  <circle class="cls-6" cx="15" cy="26" r="5"/>
  <g class="cls-7">
    <path class="cls-8" d="M22 22a3 3 0 1 1-3-3 3 3 0 0 1 3 3z"/>
  </g>
  <g class="cls-7">
    <circle class="cls-8" cx="13" cy="28" r="2"/>
  </g>
  <g class="cls-7">
    <path class="cls-8" d="M10 30a1 1 0 1 1-1 2 1 1 0 0 1 1-2z"/>
  </g>
  <path class="cls-4" d="M50 21a3 3 0 0 1-2 3c-1 0-2-1-2-3s1-3 2-3l2 3zM45 24l-2 1-2-1 2-1 2 1zM44 21l-1 1-2-1 2-1 1 1zM37 28l13-4v10l-13-6z"/>
  <path class="cls-2" d="M37 51V28a1 1 0 0 1 0-1h20c7 0 7 24 0 24zM34 32a1 1 0 0 1 1-1h1a1 1 0 0 1 0 1v15a1 1 0 0 1 0 1h-1a1 1 0 0 1-1-1V32z"/>
  <path fill="#67c2e7" d="M38 29h20v21H38z"/>
</svg>
