<svg id="Layer_1" data-name="Layer 1" xmlns="http://www.w3.org/2000/svg" viewBox="0 0 64 64">
  <defs>
    <style>
      .cls-2{fill:#86c67f}
    </style>
  </defs>
  <path d="M61.7 32a29.7 29.7 0 1 1-36-29h.8l.6-.3 1.5-.2h1l.7-.2h.5l1.2.2.8-.2h.4l1.6.4h2l.7.1 7 4.5 7.6 3A29.6 29.6 0 0 1 61.7 32z" fill="#2590ba"/>
  <path class="cls-2" d="M33.4 11.7c2 .6 1.9-.6 3.1.8.7.8 2 2.3 3.5 2.7.2 0 .7-.4.7-.8s-1-1.1-1.7-1.3.3-1.2-.5-1.6a4.8 4.8 0 0 1-2-2.6c-.3-1-1.7-.2-2.2-.4s-1.1 0-1.6.7a2.1 2.1 0 0 0 .7 2.5z"/>
  <path class="cls-2" d="M44 39.6c0-.4-4-2.5-4.4-2.5-.7 0-1.8-.4-2.5 0a2.1 2.1 0 0 0-.7.7c-.1.3-.9-.2-1.2 0-.7.3-1-.9-.8-1.3.4-1.1-1.3-.4-1.4-.7.2.3 0-3.2-.7-1.2-.4 1.5-2.2-.2-2-1.3.3-1.7 3-2 3.5-1.7.3.2 1.3 1.7 1.4 1.6.3 0-.1-1.7-.2-2-.2-.8 1.4-1 1.5-2s.6-.4 1-.8c.8-.6.2-1.7 1.1-2.2.4-.2 1.5-.3 1.7-.6s-1-1.2 0-1.4 1.7.2 2-1-1-1.5-1.4-2.4c-.2-.2-.3-1.7-.8-1.5s-1.1 1.2-1.7.2c-1-1.8-3.4-2.6-2.2.3.6 1.4-1.6 5.9-2 1.8 0-1.5-4.3-1.9-2.9-3.5s3.5-1.6 4-4c.8-3.5-1.6-.6-2.8-1.3-1.8-1-.3-.4-1.2.9-.4.4-1.6-.4-2-.3s-1.8 1.2-2 .5c-.7-1.2-4.9-2-6-1.5-2.4.9-3.3-.3-5.7-.8-.8-.2-4.9-.3-4.6 1.1a13.6 13.6 0 0 0 .7 1.5c.2.8-1 .2-1.2.4a18.9 18.9 0 0 0 1.5 1.2c.4.4-1.5.9-1.7 1.5-.4 1.4 2.6 1 2 2.6-.2.5-1.9 1.3-2 3 0 .3 2.1-2 3.5-1.5s1.1-3 2.6-3c2.9 0 3.4 2.9 5 4.7.6.9 1.2 1.2 1.3 2.4a14.1 14.1 0 0 0 .3 3.3c.3 1 1 1 1.6 1.8a13.2 13.2 0 0 0 1.7 2.5c1 1.2 3 2.9 4.7 2.7a6 6 0 0 1 2 1 6 6 0 0 1 1 1.3c.3.4 1.3.1 1.8.3s-1 3.2-.5 4 .5 1.8 1.4 2.5 1 .6 1.2 1.8A15.6 15.6 0 0 1 37 52c-.3.8.2 1.8-.1 2.6a4.1 4.1 0 0 0-.4 3c.7 2 4.3 2.4 2.1.7-.9-.8 1-2.6.4-2.7-1-.5.2-.8.3-1.3.3-.8 4.3-4.5 4.6-5s0-1 .5-1.5 1-.3 1.6-.7c1-.7.7-1.9 1-2.8 1-2 1.3-1.2 0-2.7-.2-.6-3.1-.4-3.2-2z"/>
  <path class="cls-2" d="M22.5 10.3c.7.7 1.5-.4 1.6 0s.1 1.1 1 1.2-.8.6-.3.9 1.8 1 2.2.6 1-.5 1.2-.3 1.4 0 1-.4-1.2-1.4-1.2-1.9 1-2 0-1.8a1 1 0 0 0-1 1.1c0 .4-1-.6-1.3-.5s-1-1.3-1.2-1.3-2.2-.6-2 0-.7 1.6 0 2.4zM39.3 16c-.6-.3-1.7-1.8-2.1-1.3s0 1.5.5 2 2 1.5 1.8 1 .9-1-.2-1.7zM23.6 5.8c.3 0 .8 1 1.2 1.1s.6.6.8.8a10.7 10.7 0 0 0 2.4-.8c.5-.2-.5-1.1-.9-1.8s0 1.1-.6.8-.4-.7-1-.7-.1-1.2-1-1-1.2 1.7-.9 1.6zM30 8.2c-.5.1-.4.5-.7.8a.8.8 0 0 0 0 1c.3.3.7 1 1 .4s0-1.1 0-1.5 0-.7-.3-.7zM31.1 10.1c.1.3.4-.6.9-1s-.3-1.6-.7-1a3 3 0 0 0-.2 2zM31 10.5c-.3.4-.5 1.4 0 1.5a.6.6 0 0 0 .6-.9c-.2-.4-.5-.8-.6-.6zM33 3.8c-.5.2.7.6-.1.8s-.8.9-1.5.3-1.5.2-1 .5 1.5 1.2 1.4 1.7.8.6 1.6.6 1.8.2 1.8-.2.2-.5 0-.7-.4-.8-1.2-.5-1.4.2-1.5-.2 1.6-1.2 2.4-.6 1.5-.3 1-.7-.3-.8.1-.8.5-.7.7-1.3a29.8 29.8 0 0 0-3.5-.4c0 .8.3 1.3-.2 1.5zM26 3c.5.3 1.3 0 1.2-.3l-1.5.3a.6.6 0 0 0 .2 0z"/>
  <path class="cls-2" d="M26.3 3.5c-.8-.4-.7.6-.4 1s1.3-.5.4-1zM30.8 2.3a1.3 1.3 0 0 1 1 .9c.1.3 1-.4 1-.9h-2zM29.3 3.4c-.4.5 0 1 .3.6s0-1.7.4-1.1 1 1.3 1.3 1.3 0-.5 0-.9-1-.8-.9-1l-1.7.1c.4.4.8.7.6 1zM31 7.4c.5.2 0-1 0-1-.5.4-.5.8 0 1zM29.3 6.7a.5.5 0 0 0 .9 0c.2-.4 0-2-.4-1.5s-.8.3-1.6 0 1 1.2 1.1 1.5zM34.5 34c.7 0 1 .7 1.8.7s1.9 1 2.5.4-2.2-1-3.2-1.5-1.7.4-1 .4zM37.8 3.9c1 .4.8.4.2.8s-.4 1.4.9 1.3 2-1.3 2.5.5.2 3.6 1 4.1 0 1 0 1.4.1.9.7.7.4 1 0 1.4-.9 1.2.3 2.8a19.1 19.1 0 0 0 1.8 1.8c.4.5.8-.2.9-.8s-.3-2.7 1.1-2.7a2 2 0 0 0 2-1.5c.2-.4 1.3-.3 1.9-.8a2.8 2.8 0 0 0 1.1-2.7 29.7 29.7 0 0 0-14.8-7.4c0 .4 0 .9.4 1z"/>
</svg>
