<svg id="Layer_1" data-name="Layer 1" xmlns="http://www.w3.org/2000/svg" viewBox="0 0 64 64">
  <defs>
    <style>
      .cls-1{fill:#88664d}.cls-2{fill:#a47b5e}.cls-3{fill:#decda3}.cls-4{fill:#be9072}.cls-5{fill:#eed7b1}.cls-7{fill:#7d8a90}
    </style>
  </defs>
  <path class="cls-1" d="M27 16a1 1 0 0 1-1-1l1-1a1 1 0 0 1 1 1zM16 40a1 1 0 1 1 1 0v1a1 1 0 1 1-1-1z"/>
  <path class="cls-2" d="M29 17a1 1 0 0 1-2 1l-2-1a1 1 0 0 1 1-2l2 1a1 1 0 0 1 1 1zM15 38a1 1 0 0 1 2-1l2 1a1 1 0 0 1-2 3l-2-1a1 1 0 0 1 0-2z"/>
  <path class="cls-3" transform="rotate(-67 22 28)" d="M12 25h20v5H12z"/>
  <path class="cls-1" d="M29 19a1 1 0 0 1-1 0l-5-2a1 1 0 0 1 1-1l5 2a1 1 0 0 1 0 1zM14 36a1 1 0 0 1 1 0l5 2a1 1 0 0 1 0 1l-5-2a1 1 0 0 1-1-1z"/>
  <path class="cls-2" d="M27 16l-1-1 1-1 1 1zM16 40a1 1 0 0 1 1-1 1 1 0 0 1 0 1v1a1 1 0 0 1-1 0 1 1 0 0 1 0-1z"/>
  <path class="cls-4" d="M28 17a1 1 0 0 1-1 1l-2-1a1 1 0 0 1 0-1 1 1 0 0 1 1-1l2 1a1 1 0 0 1 0 1zM15 38a1 1 0 0 1 2-1l1 1a2 2 0 0 1-1 2h-1a1 1 0 0 1-1-2z"/>
  <path class="cls-5" transform="rotate(-67 22 28)" d="M12 26h20v4H12z"/>
  <path class="cls-2" d="M28 19l-4-2a1 1 0 0 1 0-1l4 2a1 1 0 0 1 0 1zM15 36a1 1 0 0 1 1 0l4 2a1 1 0 0 1-1 1l-4-2a1 1 0 0 1 0-1z"/>
  <path class="cls-1" d="M48 24a1 1 0 0 1-1 1 1 1 0 0 1 0-1v-1a1 1 0 1 1 1 1zM37 48a1 1 0 1 1 1 1l-1 1a1 1 0 0 1-1-1z"/>
  <path class="cls-2" d="M49 26a1 1 0 0 1-1 1l-2-1a1 1 0 0 1 1-3l2 1a1 1 0 0 1 0 2zM35 47a1 1 0 0 1 2-1l2 1a1 1 0 1 1-1 2l-2-1a1 1 0 0 1-1-1z"/>
  <path class="cls-3" transform="rotate(-67 42 36)" d="M32 34h20v5H32z"/>
  <path class="cls-1" d="M50 28a1 1 0 0 1-1 0l-5-2a1 1 0 0 1-1-1 1 1 0 0 1 1 0l5 2a1 1 0 0 1 1 1zM35 45a1 1 0 0 1 1 0l5 2a1 1 0 0 1 0 1l-6-2a1 1 0 0 1 0-1z"/>
  <path class="cls-2" d="M48 24h-1v-1a1 1 0 0 1 1 0 1 1 0 0 1 0 1zM37 48l1 1-1 1-1-1 1-1z"/>
  <path class="cls-4" d="M49 26a1 1 0 0 1-2 1l-1-1a1 1 0 0 1-1-1 1 1 0 0 1 2-1h1a1 1 0 0 1 1 2zM36 47a1 1 0 0 1 1-1l2 1a1 1 0 0 1-1 2h-2a1 1 0 0 1 0-2z"/>
  <path class="cls-5" transform="rotate(-67 42 36)" d="M32 35h20v4H32z"/>
  <path class="cls-2" d="M49 28a1 1 0 0 1-1 0l-4-2a1 1 0 0 1 0-1 1 1 0 0 1 1 0l4 2a1 1 0 0 1 0 1zM36 45l4 2a1 1 0 0 1 0 1l-4-2a1 1 0 0 1 0-1z"/>
  <path d="M36 45a47 47 0 0 1-16-7l8-19a48 48 0 0 0 16 7l-8 19z" fill="#fff6d6"/>
  <path class="cls-7" d="M35 26a25 25 0 0 1-6-3v-1a24 24 0 0 0 6 4 25 25 0 0 0 6 2 25 25 0 0 1-6-2zM34 28a24 24 0 0 1-6-3v-1a25 25 0 0 0 6 4 25 25 0 0 0 6 2 25 25 0 0 1-6-2zM33 30a25 25 0 0 1-6-3v-1a24 24 0 0 0 6 3zM31 34l-3-2 3 1a25 25 0 0 0 7 2v1a25 25 0 0 1-7-2zM30 36a25 25 0 0 1-5-4 24 24 0 0 0 6 3 25 25 0 0 0 6 2v1a25 25 0 0 1-7-2zM30 38a24 24 0 0 1-6-4 25 25 0 0 0 6 3 25 25 0 0 0 6 2v1a25 25 0 0 1-6-2zM29 40a25 25 0 0 1-6-4 24 24 0 0 0 6 3z"/>
  <path d="M10 32a22 22 0 0 1 4-12l30 30a22 22 0 0 1-34-18zm44 0a22 22 0 0 1-4 12L20 14a22 22 0 0 1 34 18zM32 2a30 30 0 1 0 30 30A30 30 0 0 0 32 2z" fill="#ef5b7a"/>
</svg>
