<svg id="Layer_1" data-name="Layer 1" xmlns="http://www.w3.org/2000/svg" viewBox="0 0 64 64">
  <defs>
    <style>
      .cls-1{fill:#dee8ee}.cls-3{fill:#67c2e7}.cls-6{fill:#c171ad}.cls-8{fill:#eef8fb}.cls-12{fill:#e7e755}.cls-13{fill:#ee3a39}
    </style>
  </defs>
  <path class="cls-1" d="M22 56L2 58 8 5l19-1-5 52z"/>
  <path fill="#bac2c7" d="M43 62l-21-6 5-52 14 6 2 52z"/>
  <path class="cls-1" d="M62 55l-19 7-2-52 15-8 6 53z"/>
  <path class="cls-3" d="M22 52L7 53l5-44 15-1-5 44z"/>
  <path fill="#30a4bf" d="M43 58l-21-6 5-44 14 6 2 44z"/>
  <path class="cls-3" d="M58 52l-15 6-2-44 12-6 5 44z"/>
  <path class="cls-6" d="M22 36a4 4 0 0 0-1 0 1 1 0 0 0 0 1c-2 3 1 4 1 4-1 6 1 8 1 8a9 9 0 0 1 3-7c1-5-3-6-4-6z"/>
  <path d="M20 36a4 4 0 0 1-1-3c3 0 6-5 6-5-2-7-3-1-3-1-3-3 1-5 1-5a7 7 0 0 1-4-4l-1 2c-5-3-6 2-6 2 1 3-1 3-1 3l2-2c4 2 2 8 2 8 2 1 2 4 2 4a12 12 0 0 1 3 1z" fill="#ecb952"/>
  <path class="cls-8" d="M26 16s-1-1-4 1c0 0-1 6 4-1z"/>
  <path d="M31 18c-3-4-6 1-6 1l1 3v4a4 4 0 0 1 3-3 11 11 0 0 1 2-5z" fill="#5c63ac"/>
  <path d="M37 34h-1a6 6 0 0 1-1-2c-2-1-5-1-6 3 0 0 1 3 3 2 0 0 2 0 1 4 0 0 1 3 3 3a20 20 0 0 1 3-8s-1 1-2-2z" fill="#f27037"/>
  <path d="M53 18a27 27 0 0 1-10 1 1 1 0 0 0-1-1s-3 3-2 4c0 0 0 3-1-1l-2 2s-1 3-2 1a1 1 0 0 0 1-1s-2-2-3 1l-1 2s1-1 2 1v-3 2s2 0-1 1a5 5 0 0 1-2 2 1 1 0 0 1 0 1v1s1-3 3-1v-1a2 2 0 0 1 1 2v-1s1-2 2 0a1 1 0 0 0-2 1 1 1 0 0 1 1 0 1 1 0 0 1 0 1 4 4 0 0 0 1 1v1c1 1 2 2 3 0 0 0-1 1-2-1a5 5 0 0 1 5 3 4 4 0 0 0 1-3l3 3v-2s2 0 1-4c0 0 2 2 1-1 0 0 2-2 0-4 0 0 0-2 1-1 0 0 2-4 1 0a3 3 0 0 0 1 2 5 5 0 0 0 0-3 11 11 0 0 0 1-5z" fill="#6c7431"/>
  <path class="cls-6" d="M32 28l-1-2c0 2 0 3 1 2zM30 28l1-1-1 1zM30 24l-1 1 1-1z"/>
  <path class="cls-12" d="M38 42a5 5 0 0 0 1-2s-2 2-1 2z"/>
  <path class="cls-8" d="M48 37l-1 1s2 0 1-1z"/>
  <path class="cls-12" d="M53 40l-3-2 3 2z"/>
  <path class="cls-6" d="M49 40c1-1-2-1-2-1l2 1z"/>
  <path class="cls-13" d="M50 40a4 4 0 0 1-3 2 5 5 0 0 1 0 3s3-3 4 1c0 0 1 1 2-3a8 8 0 0 1-1-3s-1 2-2 0zM49 32s3-1 2-3a1 1 0 0 1 0-1c-1-1-1 1-1 1a2 2 0 0 1 1 0 3 3 0 0 1-2 3zM23 24s2 2 2-1h-1a3 3 0 0 0-1-3l-1 1 2 2a1 1 0 0 1-1 1z"/>
  <path class="cls-12" d="M31 16c1-1-1-3-1-3l1 3z"/>
  <path d="M30 15l-1 1 1-1z" fill="#fff"/>
</svg>
