<svg id="Layer_1" data-name="Layer 1" xmlns="http://www.w3.org/2000/svg" viewBox="0 0 64 64">
  <defs>
    <style>
      .cls-1{fill:#626566}.cls-4{fill:#93979a}
    </style>
  </defs>
  <path class="cls-1" d="M28 58.4a4 4 0 0 0 8 0z"/>
  <path d="M24.8 48.2h14.4c.8-4.3 3.5-8.6 6.4-13 3.3-5.2 6.7-10.6 6.7-15.8 0-9.8-9.1-17.8-20.3-17.8s-20.3 8-20.3 17.8c0 5.2 3.4 10.6 6.7 15.7 2.9 4.5 5.6 8.8 6.4 13.1z" fill="#f3f602"/>
  <path d="M24.5 30.8c0-.2.2-.3.3-.3a.4.4 0 0 1 .2 0 .5.5 0 0 1 .2.1 4.2 4.2 0 0 1 .7 1.5l.2.6a2.2 2.2 0 0 1-1-.5 1.6 1.6 0 0 1-.6-1.4zm6.9-3.5a.8.8 0 0 1 .6-.4.8.8 0 0 1 .6.4 1.2 1.2 0 0 1 0 1.1 4.6 4.6 0 0 1-.6.9 4.6 4.6 0 0 1-.6-.9 1.2 1.2 0 0 1 0-1.1zM38 32a4.4 4.4 0 0 1 .7-1.4.7.7 0 0 1 .2-.2.4.4 0 0 1 .2 0l.3.4a1.6 1.6 0 0 1-.5 1.3 2.2 2.2 0 0 1-1.1.5l.2-.6zm-11.7 1.6l.4 1.8.8 3.2 2.4 9.6h.6a597.8 597.8 0 0 0-2.9-13l-.3-1.6a9.2 9.2 0 0 0 4.6-3 9.2 9.2 0 0 0 4.7 3l-.4 1.6-.7 3.3c-1 3.8-1.6 7.2-2.2 9.7h.6l2.4-9.6.8-3.2.4-1.8a3.3 3.3 0 0 0 2.1-.8 2.4 2.4 0 0 0 .7-2.1 1.3 1.3 0 0 0-.9-1 1.5 1.5 0 0 0-.8 0 1.7 1.7 0 0 0-.6.3 5 5 0 0 0-1 1.8l-.3.9s-.8 0-2.7-1.2a6.5 6.5 0 0 1-1.6-1.5 5.8 5.8 0 0 0 1-1.2 2.7 2.7 0 0 0 .2-.9 1.7 1.7 0 0 0-.2-1 1.8 1.8 0 0 0-.9-.8 2 2 0 0 0-.6-.1 1.7 1.7 0 0 0-.6 0 1.8 1.8 0 0 0-.9.9 1.6 1.6 0 0 0-.2 1 2.7 2.7 0 0 0 .3.8 5.8 5.8 0 0 0 .9 1.3 6.7 6.7 0 0 1-1.7 1.5c-1.8 1.3-2.7 1.2-2.7 1.2l-.2-.9a4.8 4.8 0 0 0-1-1.8 1.6 1.6 0 0 0-.6-.4 1.5 1.5 0 0 0-.9 0 1.4 1.4 0 0 0-.9 1 2.4 2.4 0 0 0 .8 2.2 3.3 3.3 0 0 0 2 .8z" fill="#666416"/>
  <path class="cls-4" d="M24.8 50.2h14.5v1.9H24.8zM25.8 54h12.5v1.9H25.8z"/>
  <path class="cls-1" d="M25.8 52.1h12.5V54H25.8z"/>
  <path class="cls-4" d="M39.3 50.2L25.8 54v1.8l13.5-3.7v-1.9zM26.8 57.7h10.5v1.9H26.8z"/>
  <path class="cls-1" d="M26.8 55.8h10.5v1.9H26.8z"/>
  <path class="cls-4" d="M38.3 54l-11.5 3.7v1.8l11.5-3.7V54z"/>
</svg>
