<svg id="Layer_1" data-name="Layer 1" xmlns="http://www.w3.org/2000/svg" viewBox="0 0 64 64">
  <defs>
    <style>
      .cls-2{fill:#92a2aa}.cls-6{fill:#fff}
    </style>
  </defs>
  <path d="M57.6 20C48 14.3 33.1 5.6 31 5.6S14.6 14.2 5.5 20.1l-.5-.9C7.3 17.7 28 4.5 31 4.5s24.6 13.2 27 14.7z" fill="#b89272"/>
  <path class="cls-2" d="M61.5 56.6a2.8 2.8 0 0 1-2.7 2.9H7.2a2.8 2.8 0 0 1-2.7-3v-35a2.8 2.8 0 0 1 2.7-2.8h51.6a2.8 2.8 0 0 1 2.7 2.9z"/>
  <path d="M59.5 21.6a2.8 2.8 0 0 0-2.7-3H5.2a2.8 2.8 0 0 0-2.7 3v9.2h57z" fill="#ef5b7a"/>
  <path d="M2.5 30.9v25.7a2.8 2.8 0 0 0 2.7 2.9h51.6a2.8 2.8 0 0 0 2.7-3V31z" fill="#d9e3e8"/>
  <path class="cls-2" d="M5 33.2h5.8v2.2H5zM12.7 33.2h5.8v2.2h-5.8zM20.4 33.2h5.9v2.2h-5.9zM28.1 33.2h5.8v2.2h-5.8zM35.8 33.2h5.8v2.2h-5.8zM43.4 33.2h5.8v2.2h-5.8zM51.1 33.2h5.8v2.2h-5.8zM28.1 37.5h5.8v2.2h-5.8zM35.8 37.5h5.8v2.2h-5.8zM43.4 37.5h5.8v2.2h-5.8zM51.1 37.5h5.8v2.2h-5.8zM5 41.9h5.8v2.2H5zM12.7 41.9h5.8v2.2h-5.8zM20.4 41.9h5.9v2.2h-5.9zM28.1 41.9h5.8v2.2h-5.8zM35.8 41.9h5.8v2.2h-5.8zM43.4 41.9h5.8v2.2h-5.8zM51.1 41.9h5.8v2.2h-5.8zM5 46.3h5.8v2.2H5zM12.7 46.3h5.8v2.2h-5.8zM20.4 46.3h5.9v2.2h-5.9zM28.1 46.3h5.8v2.2h-5.8zM35.8 46.3h5.8v2.2h-5.8zM43.4 46.3h5.8v2.2h-5.8zM51.1 46.3h5.8v2.2h-5.8zM5 50.6h5.8v2.2H5zM12.7 50.6h5.8v2.2h-5.8zM20.4 50.6h5.9v2.2h-5.9zM28.1 50.6h5.8v2.2h-5.8zM35.8 50.6h5.8v2.2h-5.8zM43.4 50.6h5.8v2.2h-5.8zM51.1 50.6h5.8v2.2h-5.8zM5 55h5.8v2.2H5zM12.7 55h5.8v2.2h-5.8zM20.4 55h5.9v2.2h-5.9zM28.1 55h5.8v2.2h-5.8zM35.8 55h5.8v2.2h-5.8zM43.4 55h5.8v2.2h-5.8z"/>
  <ellipse cx="31.2" cy="7" rx="1.8" ry="1.9" fill="#333"/>
  <ellipse class="cls-2" cx="31" cy="7" rx="1.8" ry="1.9"/>
  <path class="cls-6" d="M19.7 26a3.5 3.5 0 0 0 .2 1.3.7.7 0 0 0 .7.4.7.7 0 0 0 .7-.4 2.1 2.1 0 0 0 0-.8v-5.3H23v5.3a3.1 3.1 0 0 1-.4 1.5 2 2 0 0 1-2 1 2.1 2.1 0 0 1-1.9-.8 4 4 0 0 1-.5-2.1v-.2zM24.6 21.2h1.6v4.7a2.7 2.7 0 0 0 .2 1.1 1.2 1.2 0 0 0 1.3.7 1.2 1.2 0 0 0 1.2-.7 2.5 2.5 0 0 0 .2-1.1v-4.7h1.6v4.7a4 4 0 0 1-.4 1.9 2.8 2.8 0 0 1-2.6 1.2 2.8 2.8 0 0 1-2.7-1.2 4.2 4.2 0 0 1-.4-2v-4.6zM32.2 21.2h1.6v6.2h3.8v1.4h-5.4v-7.6zM42 21.2h1.8L41.2 26v2.8h-1.5V26L37 21.3h2l1.5 3.3 1.5-3.3z"/>
</svg>
