<svg id="Layer_1" data-name="Layer 1" xmlns="http://www.w3.org/2000/svg" viewBox="0 0 64 64">
  <defs>
    <style>
      .cls-1{fill:#2590ba}.cls-4{fill:#afb7b7}
    </style>
  </defs>
  <ellipse class="cls-1" cx="32.1" cy="35.8" rx="25.2" ry="25.3"/>
  <ellipse cx="32.1" cy="35.8" rx="19.6" ry="19.7" fill="#fff"/>
  <path class="cls-1" d="M11 48.3L8.7 62h2c1 0 1.5-1.4 2.3-3l3.4-8zM53.1 48.3L55.4 62h-1.9c-1.1 0-1.6-1.4-2.3-3l-3.5-8zM13.3 10.2l5.8 6-3 3-6-5.9 3.2-3z"/>
  <path fill="#438ac1" d="M50.9 10.2l-5.9 6 3.1 3 5.9-5.9-3.1-3z"/>
  <path class="cls-4" d="M5.7 23.6L23.4 5.7a12.4 12.4 0 0 0-9-3.7 12.7 12.7 0 0 0-8.7 21.6zM40.5 5.8l17.8 17.7A12.6 12.6 0 1 0 40.5 5.8z"/>
  <path fill="#ed4c5c" d="M20.6 46.6L30.9 36l1.2 1.2-10.4 10.4-1.1-1.1z"/>
  <ellipse class="cls-1" cx="32.1" cy="35.8" rx="3.7" ry="3.8"/>
  <path class="cls-1" d="M30.2 21.7h3.7v15h-3.7zM33.9 33.9h7.5v3.8h-7.5z"/>
</svg>
