<svg id="Layer_1" data-name="Layer 1" xmlns="http://www.w3.org/2000/svg" viewBox="0 0 64 64">
  <defs>
    <style>
      .cls-3{fill:#93979a}.cls-5{fill:#40ace1}.cls-6{fill:#c5da5b}.cls-7{fill:#f1b21c}.cls-8{fill:#ee4660}.cls-9{fill:#b08fc2}
    </style>
  </defs>
  <path d="M49 6a4 4 0 0 0-4-4H19a4 4 0 0 0-4 4v52a4 4 0 0 0 4 4h26a4 4 0 0 0 4-4z" fill="#5c6e6d"/>
  <path d="M48 57a4 4 0 0 1-4 4H20a4 4 0 0 1-4-4V7a4 4 0 0 1 4-4h24a4 4 0 0 1 4 4z" fill="#202527"/>
  <circle class="cls-3" cx="43" cy="6" r="1"/>
  <path class="cls-3" d="M35 6v1h-6V6c0-1 0 0 0 0h6z"/>
  <path fill="#3f4347" d="M18 10h28v45H18z"/>
  <rect class="cls-3" x="28" y="56" width="7" height="3" rx="1"/>
  <rect class="cls-5" x="20" y="12" width="5" height="5" rx="1"/>
  <rect class="cls-6" x="26" y="12" width="5" height="5" rx="1"/>
  <rect class="cls-7" x="33" y="12" width="5" height="5" rx="1"/>
  <rect class="cls-5" x="40" y="12" width="5" height="5" rx="1"/>
  <rect class="cls-6" x="20" y="48" width="5" height="5" rx="1"/>
  <rect class="cls-8" x="26" y="48" width="5" height="5" rx="1"/>
  <rect class="cls-5" x="33" y="48" width="5" height="5" rx="1"/>
  <rect class="cls-9" x="40" y="48" width="5" height="5" rx="1"/>
  <rect class="cls-6" x="20" y="30" width="5" height="5" rx="1"/>
  <rect class="cls-9" x="26" y="30" width="5" height="5" rx="1"/>
  <rect class="cls-5" x="33" y="30" width="5" height="5" rx="1"/>
  <rect class="cls-8" x="20" y="24" width="5" height="5" rx="1"/>
  <rect class="cls-7" x="26" y="24" width="5" height="5" rx="1"/>
  <rect class="cls-6" x="33" y="24" width="5" height="5" rx="1"/>
  <rect class="cls-7" x="40" y="24" width="5" height="5" rx="1"/>
  <rect class="cls-9" x="20" y="18" width="5" height="5" rx="1"/>
  <rect class="cls-5" x="26" y="18" width="5" height="5" rx="1"/>
  <rect class="cls-8" x="33" y="18" width="5" height="5" rx="1"/>
  <rect class="cls-9" x="40" y="18" width="5" height="5" rx="1"/>
</svg>
