<svg id="Layer_1" data-name="Layer 1" xmlns="http://www.w3.org/2000/svg" viewBox="0 0 64 64">
  <defs>
    <style>
      .cls-6{fill:#7d8a90}
    </style>
  </defs>
  <path d="M50 34c-4-8-12-14-9-24L8 13C3 31 25 41 20 59l30-15c2-3 1-7 0-10z" fill="#92a2aa"/>
  <path d="M8 38l9-6a19 19 0 0 1 5 6l-10 5a19 19 0 0 0 0-4 42 42 0 0 0-4-1z" fill="#943435"/>
  <path d="M58 33c-4-9-13-17-10-28L10 9C4 30 30 41 24 62l35-17c1-4 0-8-1-12z" fill="#b0bcc5"/>
  <path d="M2 24l12-4a24 24 0 0 1 4 9L5 31a23 23 0 0 0 1-4 48 48 0 0 0-4-3z" fill="#ef5b7a"/>
  <path d="M12 7C6 27 33 37 28 57l34-18c1-4 0-8-2-11-4-9-13-15-10-26z" fill="#d9e3e8"/>
  <path class="cls-6" d="M16 14a20 20 0 0 0 0 2l29-6a17 17 0 0 1-1-2zM18 21l29-6-1-2-29 6 1 2zM22 27l27-8-1-2-28 8 2 2zM32 45v2l13-6a18 18 0 0 0 0-2z"/>
</svg>
