<svg id="Layer_1" data-name="Layer 1" xmlns="http://www.w3.org/2000/svg" viewBox="0 0 64 64">
  <defs>
    <style>
      .cls-1{fill:#3f4347}
    </style>
  </defs>
  <path class="cls-1" d="M17 61H6c0-2 3-4 6-4s5 2 5 4zM58 61H47c0-2 2-4 5-4s6 2 6 4z"/>
  <path class="cls-1" transform="rotate(-45 27 12)" d="M27 1h1v22h-1z"/>
  <circle class="cls-1" cx="19" cy="4" r="1"/>
  <path class="cls-1" transform="rotate(-45 37 12)" d="M26 11h22v1H26z"/>
  <circle class="cls-1" cx="45" cy="4" r="1"/>
  <ellipse class="cls-1" cx="32" cy="15" rx="8" ry="5"/>
  <path d="M59 57c-5 6-47 6-53 0-4-5-4-32 0-37 6-6 47-6 53 0 3 5 3 32 0 37z" fill="#b08fc2"/>
  <path class="cls-1" d="M49 52c-4 5-35 5-39 0-4-3-4-24 0-27 4-5 35-5 39 0 3 3 3 24 0 27z"/>
  <circle class="cls-1" cx="56" cy="29" r="3" transform="rotate(-23 56 29)"/>
  <path class="cls-1" d="M56 35a3 3 0 1 1-3 3 3 3 0 0 1 3-3z"/>
</svg>
