<svg id="Layer_1" data-name="Layer 1" xmlns="http://www.w3.org/2000/svg" viewBox="0 0 64 64">
  <defs>
    <style>
      .cls-5{fill:#93979a}
    </style>
  </defs>
  <path d="M62 6a4 4 0 0 0-4-4H6a4 4 0 0 0-4 4v38h60z" fill="#202527"/>
  <path d="M2 44v4a4 4 0 0 0 4 4h52a4 4 0 0 0 4-4v-4z" fill="#dddddc"/>
  <path d="M24 54c0 4-4 4-8 4h32c-4 0-8 0-8-4v-2H24z" fill="#bfbdbd"/>
  <path fill="#3f4347" d="M6 6h52v34H6z"/>
  <circle class="cls-5" cx="32" cy="48" r="1"/>
  <path class="cls-5" d="M16 58h32v4H16z"/>
</svg>
