<svg id="Layer_1" data-name="Layer 1" xmlns="http://www.w3.org/2000/svg" viewBox="0 0 64 64">
  <defs>
    <style>
      .cls-1{fill:#88664d}.cls-2{fill:#a47b5e}.cls-3{fill:#decda3}.cls-4{fill:#be9072}.cls-5{fill:#eed7b1}.cls-7{fill:#7d8a90}
    </style>
  </defs>
  <path class="cls-1" d="M10.1 4.7a1.2 1.2 0 1 1-2.3 0V3A1.2 1.2 0 1 1 10 3zM7.8 59.3a1.2 1.2 0 1 1 2.3 0V61a1.2 1.2 0 1 1-2.3 0z"/>
  <path class="cls-2" d="M14.1 7.2a3 3 0 0 1-2.9 3H6.7a3 3 0 0 1 0-6h4.5a3 3 0 0 1 3 3zM3.7 56.8a3 3 0 0 1 3-3h4.5a3 3 0 0 1 0 6H6.7a3 3 0 0 1-3-3z"/>
  <path class="cls-3" d="M4 11.1h9.8v41.7H4z"/>
  <path class="cls-1" d="M16.1 9.8a1.3 1.3 0 0 1-1.3 1.3H3.1a1.3 1.3 0 0 1 0-2.6h11.7a1.3 1.3 0 0 1 1.3 1.3zM1.8 54.2A1.3 1.3 0 0 1 3 52.9h11.7a1.3 1.3 0 0 1 0 2.6H3.1a1.3 1.3 0 0 1-1.3-1.3z"/>
  <path class="cls-2" d="M9.8 4.7A1 1 0 0 1 9 6 1 1 0 0 1 8 4.7V3a1 1 0 0 1 .9-1.1 1 1 0 0 1 .9 1.1zM8 59.3a1 1 0 0 1 .9-1.2 1 1 0 0 1 .9 1.2V61a1 1 0 0 1-.9 1.1 1 1 0 0 1-.9-1.1z"/>
  <path class="cls-4" d="M13 7.2c0 1.6-1 3-2.3 3H7.2c-1.3 0-2.3-1.3-2.3-3s1-3 2.3-3h3.5c1.2 0 2.3 1.4 2.3 3zM5 56.8c0-1.6 1-3 2.2-3h3.5c1.2 0 2.3 1.3 2.3 3s-1 3-2.3 3H7.2c-1.3 0-2.3-1.4-2.3-3z"/>
  <path class="cls-5" d="M5.1 11.1h7.6v41.7H5.1z"/>
  <path class="cls-2" d="M14.5 9.8a1.2 1.2 0 0 1-1 1.3H4.4a1.2 1.2 0 0 1-1-1.3 1.2 1.2 0 0 1 1-1.3h9a1.2 1.2 0 0 1 1.1 1.3zM3.4 54.2a1.2 1.2 0 0 1 1-1.3h9a1.4 1.4 0 0 1 0 2.6h-9a1.2 1.2 0 0 1-1-1.3z"/>
  <path class="cls-1" d="M56.2 4.7a1.2 1.2 0 1 1-2.3 0V3a1.2 1.2 0 1 1 2.3 0zM53.9 59.3a1.2 1.2 0 1 1 2.3 0V61a1.2 1.2 0 1 1-2.3 0z"/>
  <path class="cls-2" d="M60.3 7.2a3 3 0 0 1-3 3h-4.5a3 3 0 0 1 0-6h4.5a3 3 0 0 1 3 3zM49.9 56.8a3 3 0 0 1 2.9-3h4.5a3 3 0 0 1 0 6h-4.5a3 3 0 0 1-3-3z"/>
  <path class="cls-3" d="M50.1 11.1h9.8v41.7h-9.8z"/>
  <path class="cls-1" d="M62.2 9.8a1.3 1.3 0 0 1-1.3 1.3H49.2a1.3 1.3 0 0 1 0-2.6h11.7a1.3 1.3 0 0 1 1.3 1.3zM47.9 54.2a1.3 1.3 0 0 1 1.3-1.3h11.7a1.3 1.3 0 0 1 0 2.6H49.2a1.3 1.3 0 0 1-1.3-1.3z"/>
  <path class="cls-2" d="M56 4.7a1 1 0 1 1-1.8 0V3a1 1 0 0 1 .9-1.1 1 1 0 0 1 .9 1.1zM54.2 59.3a1 1 0 1 1 1.8 0V61a1 1 0 1 1-1.8 0v-1.8z"/>
  <path class="cls-4" d="M59 7.2c0 1.6-1 3-2.2 3h-3.5c-1.2 0-2.3-1.3-2.3-3s1-3 2.3-3h3.5c1.3 0 2.3 1.4 2.3 3zM51 56.8c0-1.6 1-3 2.3-3h3.5c1.3 0 2.3 1.3 2.3 3s-1 3-2.3 3h-3.5c-1.3 0-2.3-1.4-2.3-3z"/>
  <path class="cls-5" d="M51.3 11.1h7.6v41.7h-7.6z"/>
  <path class="cls-2" d="M60.6 9.8a1.2 1.2 0 0 1-1 1.3h-9a1.2 1.2 0 0 1-1-1.3 1.2 1.2 0 0 1 1-1.3h9a1.2 1.2 0 0 1 1 1.3zM49.5 54.2a1.2 1.2 0 0 1 1-1.3h9.1a1.4 1.4 0 0 1 0 2.6h-9.1a1.2 1.2 0 0 1-1-1.3z"/>
  <path d="M50.1 52.9c-18.1 3.9-36.2 0-36.2 0V11C32 15 50 11.1 50 11.1V53z" fill="#fff6d6"/>
  <path class="cls-7" d="M32 18.6c-8.7 0-13.3-1.3-13.5-1.4l.3-.9s4.7 1.4 13.2 1.4c9.1 0 13.6-1.4 13.7-1.4l.2 1c-.2 0-4.6 1.3-13.9 1.3zM32 23c-8.7 0-13.3-1.4-13.5-1.4l.3-1S23.5 22 32 22c9.1 0 13.6-1.4 13.7-1.4l.2 1c-.2 0-4.6 1.4-13.9 1.4zM32 27.3c-8.7 0-13.3-1.4-13.5-1.5l.3-.9s4.7 1.4 13.2 1.4zM32 36c-2.4 0-4.6-.2-6.7-.4v-1c2.1.3 4.4.4 6.7.4 9.1 0 13.6-1.4 13.7-1.4l.2.9c-.2 0-4.6 1.4-13.9 1.4zM32 40.2c-8.7 0-13.3-1.4-13.5-1.4l.3-1s4.7 1.5 13.2 1.5c9.1 0 13.6-1.4 13.7-1.4l.2.9c-.2 0-4.6 1.4-13.9 1.4zM32 44.5c-8.7 0-13.3-1.3-13.5-1.4l.3-.9s4.7 1.4 13.2 1.4c9.1 0 13.6-1.4 13.7-1.4l.2.9c-.2 0-4.6 1.4-13.9 1.4zM32 48.9c-8.7 0-13.3-1.4-13.5-1.5l.3-.9S23.5 48 32 48z"/>
</svg>
