<svg id="Layer_1" data-name="Layer 1" xmlns="http://www.w3.org/2000/svg" viewBox="0 0 64 64">
  <defs>
    <style>
      .cls-1{fill:#ef5b7a}.cls-2{fill:#f2f2f2}.cls-3{fill:#c94747}.cls-4{fill:#d0d0d0}.cls-5{fill:#fff}.cls-7{fill:#d34668}
    </style>
  </defs>
  <path class="cls-1" d="M56 36H8L2 62h60l-6-26z"/>
  <path class="cls-2" d="M10 62h14l1-26H14l-4 26z"/>
  <path class="cls-3" d="M2 36c0 2 3 4 6 4s6-2 6-4z"/>
  <path class="cls-4" d="M14 36c0 2 3 4 6 4s5-2 5-4z"/>
  <path class="cls-2" d="M54 62H40l-1-26h11l4 26z"/>
  <path class="cls-3" d="M62 36c0 2-3 4-6 4s-6-2-6-4z"/>
  <path class="cls-4" d="M50 36c0 2-3 4-6 4s-5-2-5-4z"/>
  <path class="cls-1" d="M32 10C31 21 18 36 2 36h60c-16 0-29-15-30-26z"/>
  <path class="cls-5" d="M14 36h11s7-8 7-26c0 0-7 26-18 26zM32 10c0 18 7 26 7 26h11c-11 0-18-26-18-26z"/>
  <path class="cls-3" d="M32 36h-7c0 2 4 4 7 4s7-2 7-4z"/>
  <path fill="#3f4347" d="M32 40L22 62h21L32 40z"/>
  <path class="cls-7" d="M22 62s-3 0-5-5c0 0 5-1 15-17 0 0-5 22-10 22zM42 62s3 0 5-5c0 0-5-1-15-17 0 0 5 22 10 22z"/>
  <path fill="#93979a" d="M31 3h2v10h-2z"/>
  <path class="cls-4" d="M32 3h1v10h-1z"/>
  <ellipse class="cls-1" cx="32" cy="4" rx="2" ry="1"/>
  <path class="cls-3" d="M32 4a1 1 0 0 1-1-1 1 1 0 0 0-1 1 2 2 0 0 0 3 0 1 1 0 0 0 0-1 1 1 0 0 1-1 1z"/>
  <path d="M32 3h0z" fill="#f9c5cd"/>
  <path class="cls-1" d="M33 5v4c3-3 5 2 8-2-3 2-5-3-8-2z"/>
</svg>
